{
  "accessors": [
    {
      "bufferView": 2,
      "componentType": 5126,
      "count": 63,
      "max": [
        54.631690979003906,
        145.02914428710938,
        223.35244750976563
      ],
      "min": [
        -55.14404296875,
        -446.4230041503906,
        -174.41651916503906
      ],
      "type": "VEC3"
    },
    {
      "bufferView": 2,
      "byteOffset": 756,
      "componentType": 5126,
      "count": 63,
      "max": [
        0.9999716281890869,
        0.016659701243042946,
        0.0450727641582489
      ],
      "min": [
        -0.9999716281890869,
        -0.016659701243042946,
        -0.9046011567115784
      ],
      "type": "VEC3"
    },
    {
      "bufferView": 1,
      "componentType": 5126,
      "count": 63,
      "max": [
        0.9712859988212585,
        0.9938650131225586
      ],
      "min": [
        0.8161619901657104,
        0.9101529717445374
      ],
      "type": "VEC2"
    },
    {
      "bufferView": 0,
      "componentType": 5125,
      "count": 144,
      "type": "SCALAR"
    },
    {
      "bufferView": 2,
      "byteOffset": 1512,
      "componentType": 5126,
      "count": 4033,
      "max": [
        750.0389404296875,
        300.0501403808594,
        391.844482421875
      ],
      "min": [
        -737.8192138671875,
        -903.2880859375,
        -470.3858337402344
      ],
      "type": "VEC3"
    },
    {
      "bufferView": 2,
      "byteOffset": 49908,
      "componentType": 5126,
      "count": 4033,
      "max": [
        1.0,
        1.0,
        1.0
      ],
      "min": [
        -1.0,
        -1.0,
        -1.0
      ],
      "type": "VEC3"
    },
    {
      "bufferView": 1,
      "byteOffset": 504,
      "componentType": 5126,
      "count": 4033,
      "max": [
        0.9947850108146667,
        0.9951249957084656
      ],
      "min": [
        0.006994000170379877,
        0.003734000027179718
      ],
      "type": "VEC2"
    },
    {
      "bufferView": 0,
      "byteOffset": 576,
      "componentType": 5125,
      "count": 7464,
      "type": "SCALAR"
    }
  ],
  "asset": {
    "extras": {
      "author": "donga (https://sketchfab.com/donga29011998)",
      "license": "CC-BY-4.0 (http://creativecommons.org/licenses/by/4.0/)",
      "source": "https://sketchfab.com/3d-models/house-lowpoly-02-e05d7db8c9f54abf975ee9d12720c1f8",
      "title": "House_lowpoly_02"
    },
    "generator": "Sketchfab-12.66.0",
    "version": "2.0"
  },
  "bufferViews": [
    {
      "buffer": 0,
      "byteLength": 30432,
      "name": "floatBufferViews",
      "target": 34963
    },
    {
      "buffer": 0,
      "byteLength": 32768,
      "byteOffset": 30432,
      "byteStride": 8,
      "name": "floatBufferViews",
      "target": 34962
    },
    {
      "buffer": 0,
      "byteLength": 98304,
      "byteOffset": 63200,
      "byteStride": 12,
      "name": "floatBufferViews",
      "target": 34962
    }
  ],
  "buffers": [
    {
      "byteLength": 161504,
      "uri": "scene.bin"
    }
  ],
  "images": [
    {
      "uri": "textures/lambert3SG_baseColor.jpeg"
    }
  ],
  "materials": [
    {
      "doubleSided": true,
      "name": "lambert3SG",
      "pbrMetallicRoughness": {
        "baseColorTexture": {
          "index": 0
        },
        "metallicFactor": 0.0,
        "roughnessFactor": 0.6
      }
    }
  ],
  "meshes": [
    {
      "name": "Object_0",
      "primitives": [
        {
          "attributes": {
            "NORMAL": 1,
            "POSITION": 0,
            "TEXCOORD_0": 2
          },
          "indices": 3,
          "material": 0,
          "mode": 4
        }
      ]
    },
    {
      "name": "Object_1",
      "primitives": [
        {
          "attributes": {
            "NORMAL": 5,
            "POSITION": 4,
            "TEXCOORD_0": 6
          },
          "indices": 7,
          "material": 0,
          "mode": 4
        }
      ]
    }
  ],
  "nodes": [
    {
      "children": [
        1
      ],
      "matrix": [
        1.0,
        0.0,
        0.0,
        0.0,
        0.0,
        2.220446049250313e-16,
        -1.0,
        0.0,
        0.0,
        1.0,
        2.220446049250313e-16,
        0.0,
        0.0,
        0.0,
        0.0,
        1.0
      ],
      "name": "Sketchfab_model"
    },
    {
      "children": [
        2,
        3
      ],
      "name": "9528718fb033435eacb66edbd8710d46.obj.cleaner.materialmerger.gles"
    },
    {
      "mesh": 0,
      "name": "Object_2"
    },
    {
      "mesh": 1,
      "name": "Object_3"
    }
  ],
  "samplers": [
    {
      "magFilter": 9729,
      "minFilter": 9987,
      "wrapS": 10497,
      "wrapT": 10497
    }
  ],
  "scene": 0,
  "scenes": [
    {
      "name": "Sketchfab_Scene",
      "nodes": [
        0
      ]
    }
  ],
  "textures": [
    {
      "sampler": 0,
      "source": 0
    }
  ]
}
