<?xml version="1.0" encoding="UTF-8" standalone="no"?><!DOCTYPE svg PUBLIC "-//W3C//DTD SVG 1.1//EN" "http://www.w3.org/Graphics/SVG/1.1/DTD/svg11.dtd"><svg width="100%" height="100%" viewBox="0 0 336 336" version="1.1" xmlns="http://www.w3.org/2000/svg" xmlns:xlink="http://www.w3.org/1999/xlink" xml:space="preserve" xmlns:serif="http://www.serif.com/" style="fill-rule:evenodd;clip-rule:evenodd;stroke-linejoin:round;stroke-miterlimit:2;"><path d="M35.309,49.952l-0.001,-0.001c-1.921,-1.877 -3.004,-4.449 -3.004,-7.136l-0,-4.867c-0,-3.6 1.43,-7.052 3.975,-9.597c-0,-0 0.001,-0.001 0.001,-0.001c5.302,-5.303 12.493,-8.283 19.992,-8.284c51.786,-0.014 189.606,-0.049 237.874,-0.062c5.57,-0.001 10.911,2.211 14.849,6.149c0.001,0 0.001,0 0.001,0.001c3.907,3.906 6.102,9.205 6.102,14.73l-0,237.982c-0,7.519 -2.987,14.731 -8.304,20.048c-0,-0 -0.001,0 -0.001,0c-2.529,2.53 -5.96,3.951 -9.537,3.951c-0,-0 -4.903,-0 -4.903,-0c-2.686,-0 -5.259,-1.083 -7.136,-3.005l-0,-0c-5.92,-6.06 -9.142,-14.252 -8.937,-22.721c-0,0 3.502,-144.597 3.502,-144.597c0.196,-8.198 -4.616,-15.685 -12.151,-18.91c-7.534,-3.226 -16.273,-1.54 -22.067,4.257c-3.867,3.867 -144.398,144.398 -189.414,189.414c-5.036,5.036 -11.867,7.866 -18.989,7.866c-0,-0 -0,-0 -0,-0c-4.002,-0 -7.839,-1.59 -10.668,-4.419l-2.074,-2.074c-2.83,-2.83 -4.419,-6.667 -4.419,-10.668c0,0 0,-0 0,-0c-0,-7.122 2.829,-13.953 7.865,-18.989c45.017,-45.016 185.547,-185.547 189.418,-189.418c5.793,-5.791 7.479,-14.529 4.254,-22.064c-3.226,-7.534 -10.713,-12.346 -18.906,-12.151l-144.602,3.503c-8.468,0.205 -16.661,-3.018 -22.72,-8.937Z" style="fill-rule:nonzero;"/></svg>