<!-- Artboard-1 -->
<svg id="shape-66d91cc1-3560-11ec-a0f7-71ca84b9679b" x="0" y="0" width="1920" height="3240" xmlns="http://www.w3.org/2000/svg" xmlns:xlink="http://www.w3.org/1999/xlink">
  <rect x="0" y="0" width="1920" height="3240" class="frame-background" style="fill: rgb(255, 255, 255); fill-opacity: 1;">
  </rect>
  <g id="shape-c1718e60-3560-11ec-a0f7-71ca84b9679b">
    <path d="M674,-179C674,-179,659,1096,2165,956C3671,816,2522,-179,2522,-179L674,-179ZM-758,2091C-758,2091,-374.269413713526,1912.9582561662478,-252,1845.2767906188965C412.7425203323364,1477.312744140625,240.515625,2678,2165,2433" style="fill: none; stroke-width: 48; stroke: rgb(0, 0, 0); stroke-opacity: 1;">
    </path>
  </g>
  <g id="shape-7ee48200-3560-11ec-a0f7-71ca84b9679b">
    <path d="M295,-244C295,519,720,1526,2204,1272C3688,1018,3232,2227,2373,2227C1514,2227,676,859,-384,1633C-1444,2407,1017,3287,1992,2852C2967,2417,2935,2417,2935,2417" style="fill: none; stroke-width: 42; stroke: rgb(0, 0, 0); stroke-opacity: 1;">
    </path>
  </g>
</svg>