<svg width="1600" height="1099" viewBox="0 0 1600 1099" fill="none" xmlns="http://www.w3.org/2000/svg">
<rect width="1600" height="1099" fill="#010101"/>
<path d="M563.693 203.01C558.037 203.01 552.819 202.101 548.038 200.283C543.325 198.465 539.217 195.94 535.716 192.708C532.282 189.409 529.622 185.503 527.737 180.992C525.852 176.481 524.909 171.532 524.909 166.145C524.909 160.758 525.852 155.809 527.737 151.298C529.69 146.787 532.417 142.915 535.918 139.683C539.419 136.384 543.56 133.825 548.341 132.007C553.189 130.189 558.508 129.28 564.299 129.28C567.598 129.28 570.83 129.684 573.995 130.492C577.227 131.233 580.257 132.411 583.085 134.027C585.98 135.576 588.606 137.562 590.963 139.986L577.934 155.237C576.991 154.092 575.847 153.049 574.5 152.106C573.221 151.163 571.706 150.423 569.955 149.884C568.272 149.278 566.319 148.975 564.097 148.975C561.808 148.975 559.619 149.379 557.532 150.187C555.512 150.928 553.728 152.039 552.179 153.52C550.698 155.001 549.519 156.819 548.644 158.974C547.769 161.129 547.331 163.62 547.331 166.448C547.331 169.007 547.769 171.33 548.644 173.417C549.519 175.504 550.765 177.289 552.381 178.77C553.997 180.251 555.95 181.396 558.239 182.204C560.528 183.012 563.087 183.416 565.915 183.416C567.935 183.416 569.854 183.113 571.672 182.507C573.49 181.901 575.14 181.127 576.621 180.184C578.102 179.174 579.382 178.063 580.459 176.851L590.862 193.213C589.111 195.098 586.788 196.782 583.893 198.263C580.998 199.744 577.799 200.923 574.298 201.798C570.797 202.606 567.262 203.01 563.693 203.01ZM625.311 203.01C619.049 203.01 613.662 201.798 609.151 199.374C604.64 196.95 601.172 193.651 598.748 189.476C596.324 185.234 595.112 180.386 595.112 174.932C595.112 170.892 595.785 167.155 597.132 163.721C598.479 160.287 600.364 157.324 602.788 154.833C605.279 152.274 608.175 150.322 611.474 148.975C614.841 147.561 618.51 146.854 622.483 146.854C626.456 146.854 630.058 147.561 633.29 148.975C636.589 150.322 639.417 152.274 641.774 154.833C644.131 157.324 645.915 160.287 647.127 163.721C648.406 167.155 648.979 170.892 648.844 174.932L648.743 179.174H606.424L604.101 169.579H632.482L630.563 171.599V169.781C630.563 168.502 630.226 167.391 629.553 166.448C628.947 165.438 628.072 164.664 626.927 164.125C625.782 163.586 624.436 163.317 622.887 163.317C620.934 163.317 619.285 163.721 617.938 164.529C616.591 165.337 615.548 166.482 614.807 167.963C614.134 169.444 613.797 171.229 613.797 173.316C613.797 175.74 614.302 177.861 615.312 179.679C616.389 181.497 617.938 182.911 619.958 183.921C622.045 184.931 624.604 185.436 627.634 185.436C629.654 185.436 631.371 185.2 632.785 184.729C634.266 184.19 635.815 183.349 637.431 182.204L646.824 195.435C644.333 197.388 641.875 198.903 639.451 199.98C637.094 201.057 634.738 201.832 632.381 202.303C630.092 202.774 627.735 203.01 625.311 203.01ZM658.332 202V147.965H677.32L678.532 165.943L673.987 163.115C674.862 160.018 676.242 157.257 678.128 154.833C680.013 152.342 682.269 150.389 684.895 148.975C687.588 147.561 690.45 146.854 693.48 146.854C694.692 146.854 695.836 146.955 696.914 147.157C697.991 147.292 699.035 147.494 700.045 147.763L694.389 170.488C693.715 170.017 692.638 169.579 691.157 169.175C689.743 168.771 688.194 168.569 686.511 168.569C685.299 168.569 684.188 168.771 683.178 169.175C682.235 169.512 681.427 170.05 680.754 170.791C680.148 171.532 679.676 172.407 679.34 173.417C679.003 174.427 678.835 175.605 678.835 176.952V202H658.332ZM712.942 202V134.33H733.445V202H712.942ZM704.559 165.135V147.965H742.333V165.135H704.559ZM751.744 202V147.965H772.247V202H751.744ZM762.046 138.168C758.41 138.168 755.548 137.326 753.461 135.643C751.441 133.96 750.431 131.569 750.431 128.472C750.431 125.644 751.475 123.321 753.562 121.503C755.649 119.685 758.477 118.776 762.046 118.776C765.682 118.776 768.51 119.618 770.53 121.301C772.617 122.984 773.661 125.375 773.661 128.472C773.661 131.3 772.617 133.623 770.53 135.441C768.443 137.259 765.615 138.168 762.046 138.168ZM788.368 202V147.763C788.368 143.925 789.176 140.424 790.792 137.259C792.475 134.094 794.798 131.569 797.761 129.684C800.791 127.731 804.326 126.755 808.366 126.755C811.126 126.755 813.685 127.125 816.042 127.866C818.398 128.607 820.62 129.617 822.708 130.896L817.355 145.541C816.479 145.339 815.705 145.204 815.032 145.137C814.358 145.002 813.786 144.935 813.315 144.935C812.237 144.935 811.362 145.137 810.689 145.541C810.083 145.945 809.611 146.551 809.275 147.359C809.005 148.1 808.871 149.042 808.871 150.187V202H798.67C796.111 202 793.956 202 792.206 202C790.522 202 789.243 202 788.368 202ZM780.995 166.044V149.884H818.769V166.044H780.995ZM826.748 202V147.965H847.251V202H826.748ZM837.05 138.168C833.414 138.168 830.552 137.326 828.465 135.643C826.445 133.96 825.435 131.569 825.435 128.472C825.435 125.644 826.478 123.321 828.566 121.503C830.653 119.685 833.481 118.776 837.05 118.776C840.686 118.776 843.514 119.618 845.534 121.301C847.621 122.984 848.665 125.375 848.665 128.472C848.665 131.3 847.621 133.623 845.534 135.441C843.446 137.259 840.618 138.168 837.05 138.168ZM886.152 203.01C880.698 203.01 875.817 201.798 871.507 199.374C867.265 196.95 863.899 193.651 861.407 189.476C858.983 185.234 857.771 180.386 857.771 174.932C857.771 169.478 858.983 164.664 861.407 160.489C863.899 156.247 867.265 152.914 871.507 150.49C875.817 148.066 880.698 146.854 886.152 146.854C891 146.854 895.478 147.595 899.585 149.076C903.693 150.557 907.026 152.712 909.584 155.54L898.474 168.67C897.734 167.862 896.858 167.121 895.848 166.448C894.838 165.775 893.694 165.27 892.414 164.933C891.135 164.529 889.654 164.327 887.97 164.327C885.95 164.327 884.166 164.765 882.617 165.64C881.136 166.515 879.991 167.761 879.183 169.377C878.375 170.926 877.971 172.744 877.971 174.831C877.971 176.851 878.342 178.669 879.082 180.285C879.89 181.834 881.035 183.079 882.516 184.022C884.065 184.965 885.883 185.436 887.97 185.436C889.654 185.436 891.135 185.268 892.414 184.931C893.694 184.594 894.838 184.123 895.848 183.517C896.858 182.844 897.734 182.069 898.474 181.194L909.483 194.425C906.992 197.186 903.693 199.307 899.585 200.788C895.478 202.269 891 203.01 886.152 203.01ZM936.928 202.909C932.417 202.909 928.411 201.731 924.909 199.374C921.408 196.95 918.647 193.651 916.627 189.476C914.607 185.234 913.597 180.386 913.597 174.932C913.597 169.411 914.574 164.563 916.526 160.388C918.546 156.146 921.307 152.847 924.808 150.49C928.377 148.066 932.484 146.854 937.13 146.854C939.554 146.854 941.776 147.191 943.796 147.864C945.816 148.537 947.601 149.48 949.149 150.692C950.698 151.904 952.045 153.318 953.189 154.934C954.334 156.483 955.31 158.166 956.118 159.984L951.977 159.883V147.965H972.076V202H951.472V188.769L956.017 189.173C955.344 191.126 954.401 192.944 953.189 194.627C952.045 196.31 950.664 197.758 949.048 198.97C947.432 200.182 945.614 201.158 943.594 201.899C941.574 202.572 939.352 202.909 936.928 202.909ZM942.786 186.244C944.739 186.244 946.389 185.806 947.735 184.931C949.149 184.056 950.193 182.776 950.866 181.093C951.607 179.41 951.977 177.356 951.977 174.932C951.977 172.508 951.607 170.454 950.866 168.771C950.193 167.02 949.149 165.707 947.735 164.832C946.389 163.957 944.739 163.519 942.786 163.519C940.834 163.519 939.184 163.957 937.837 164.832C936.491 165.707 935.447 167.02 934.706 168.771C934.033 170.454 933.696 172.508 933.696 174.932C933.696 177.356 934.033 179.41 934.706 181.093C935.447 182.776 936.491 184.056 937.837 184.931C939.184 185.806 940.834 186.244 942.786 186.244ZM989.015 202V134.33H1009.52V202H989.015ZM980.632 165.135V147.965H1018.41V165.135H980.632ZM1053.18 203.01C1046.92 203.01 1041.53 201.798 1037.02 199.374C1032.51 196.95 1029.04 193.651 1026.62 189.476C1024.19 185.234 1022.98 180.386 1022.98 174.932C1022.98 170.892 1023.65 167.155 1025 163.721C1026.35 160.287 1028.23 157.324 1030.66 154.833C1033.15 152.274 1036.04 150.322 1039.34 148.975C1042.71 147.561 1046.38 146.854 1050.35 146.854C1054.32 146.854 1057.93 147.561 1061.16 148.975C1064.46 150.322 1067.29 152.274 1069.64 154.833C1072 157.324 1073.78 160.287 1075 163.721C1076.28 167.155 1076.85 170.892 1076.71 174.932L1076.61 179.174H1034.29L1031.97 169.579H1060.35L1058.43 171.599V169.781C1058.43 168.502 1058.1 167.391 1057.42 166.448C1056.82 165.438 1055.94 164.664 1054.8 164.125C1053.65 163.586 1052.3 163.317 1050.76 163.317C1048.8 163.317 1047.15 163.721 1045.81 164.529C1044.46 165.337 1043.42 166.482 1042.68 167.963C1042 169.444 1041.67 171.229 1041.67 173.316C1041.67 175.74 1042.17 177.861 1043.18 179.679C1044.26 181.497 1045.81 182.911 1047.83 183.921C1049.91 184.931 1052.47 185.436 1055.5 185.436C1057.52 185.436 1059.24 185.2 1060.65 184.729C1062.14 184.19 1063.68 183.349 1065.3 182.204L1074.69 195.435C1072.2 197.388 1069.74 198.903 1067.32 199.98C1064.96 201.057 1062.61 201.832 1060.25 202.303C1057.96 202.774 1055.6 203.01 1053.18 203.01Z" fill="white"/>
<path d="M612.96 259.6C610 259.6 607.26 259.06 604.74 257.98C602.26 256.9 600.08 255.4 598.2 253.48C596.36 251.52 594.92 249.24 593.88 246.64C592.88 244 592.38 241.12 592.38 238C592.38 234.88 592.88 232.02 593.88 229.42C594.92 226.78 596.36 224.5 598.2 222.58C600.08 220.62 602.26 219.1 604.74 218.02C607.26 216.94 610 216.4 612.96 216.4C615.92 216.4 618.64 216.94 621.12 218.02C623.64 219.1 625.82 220.62 627.66 222.58C629.54 224.54 630.98 226.84 631.98 229.48C633.02 232.08 633.54 234.92 633.54 238C633.54 241.08 633.02 243.94 631.98 246.58C630.98 249.18 629.54 251.46 627.66 253.42C625.82 255.38 623.64 256.9 621.12 257.98C618.64 259.06 615.92 259.6 612.96 259.6ZM612.96 253.3C615 253.3 616.86 252.92 618.54 252.16C620.26 251.4 621.74 250.34 622.98 248.98C624.22 247.58 625.18 245.96 625.86 244.12C626.58 242.24 626.94 240.2 626.94 238C626.94 235.8 626.58 233.78 625.86 231.94C625.18 230.06 624.22 228.44 622.98 227.08C621.74 225.68 620.26 224.6 618.54 223.84C616.86 223.08 615 222.7 612.96 222.7C610.92 222.7 609.04 223.08 607.32 223.84C605.64 224.6 604.16 225.66 602.88 227.02C601.64 228.38 600.68 230 600 231.88C599.32 233.72 598.98 235.76 598.98 238C598.98 240.2 599.32 242.24 600 244.12C600.68 246 601.64 247.62 602.88 248.98C604.16 250.34 605.64 251.4 607.32 252.16C609.04 252.92 610.92 253.3 612.96 253.3ZM644.174 259V223.96C644.174 222.16 644.574 220.56 645.374 219.16C646.174 217.76 647.274 216.66 648.674 215.86C650.074 215.06 651.694 214.66 653.534 214.66C654.814 214.66 656.014 214.9 657.134 215.38C658.254 215.86 659.154 216.5 659.834 217.3L657.734 222.04C657.214 221.56 656.634 221.18 655.994 220.9C655.394 220.58 654.814 220.42 654.254 220.42C653.414 220.42 652.694 220.56 652.094 220.84C651.534 221.08 651.114 221.48 650.834 222.04C650.554 222.56 650.414 223.2 650.414 223.96V259H647.294C646.774 259 646.254 259 645.734 259C645.214 259 644.694 259 644.174 259ZM639.134 233.74V228.04H657.854V233.74H639.134ZM699.725 259.6C696.805 259.6 694.125 259.08 691.685 258.04C689.245 257 687.125 255.52 685.325 253.6C683.525 251.64 682.125 249.34 681.125 246.7C680.165 244.06 679.685 241.16 679.685 238C679.685 235 680.205 232.22 681.245 229.66C682.325 227.06 683.805 224.78 685.685 222.82C687.565 220.86 689.745 219.34 692.225 218.26C694.705 217.18 697.385 216.64 700.265 216.64C702.305 216.64 704.285 216.96 706.205 217.6C708.165 218.2 709.925 219.06 711.485 220.18C713.085 221.26 714.385 222.5 715.385 223.9L711.065 228.4C709.905 227.24 708.725 226.28 707.525 225.52C706.365 224.72 705.165 224.12 703.925 223.72C702.725 223.32 701.505 223.12 700.265 223.12C698.305 223.12 696.465 223.5 694.745 224.26C693.065 224.98 691.585 226 690.305 227.32C689.065 228.64 688.085 230.22 687.365 232.06C686.645 233.86 686.285 235.84 686.285 238C686.285 240.28 686.625 242.36 687.305 244.24C688.025 246.08 689.025 247.66 690.305 248.98C691.585 250.3 693.105 251.32 694.865 252.04C696.665 252.72 698.645 253.06 700.805 253.06C702.125 253.06 703.425 252.88 704.705 252.52C705.985 252.16 707.185 251.64 708.305 250.96C709.425 250.28 710.445 249.48 711.365 248.56L714.605 253.84C713.685 254.92 712.425 255.9 710.825 256.78C709.265 257.66 707.505 258.36 705.545 258.88C703.625 259.36 701.685 259.6 699.725 259.6ZM736.007 259.6C732.927 259.6 730.167 258.9 727.727 257.5C725.327 256.06 723.427 254.12 722.027 251.68C720.627 249.2 719.927 246.38 719.927 243.22C719.927 240.06 720.627 237.26 722.027 234.82C723.427 232.34 725.327 230.4 727.727 229C730.167 227.56 732.927 226.84 736.007 226.84C739.047 226.84 741.767 227.56 744.167 229C746.607 230.4 748.527 232.34 749.927 234.82C751.327 237.26 752.027 240.06 752.027 243.22C752.027 246.38 751.327 249.2 749.927 251.68C748.527 254.12 746.607 256.06 744.167 257.5C741.767 258.9 739.047 259.6 736.007 259.6ZM736.007 253.96C737.887 253.96 739.567 253.5 741.047 252.58C742.527 251.62 743.687 250.34 744.527 248.74C745.367 247.1 745.767 245.26 745.727 243.22C745.767 241.14 745.367 239.3 744.527 237.7C743.687 236.06 742.527 234.78 741.047 233.86C739.567 232.94 737.887 232.48 736.007 232.48C734.127 232.48 732.427 232.96 730.907 233.92C729.427 234.84 728.267 236.12 727.427 237.76C726.587 239.36 726.187 241.18 726.227 243.22C726.187 245.26 726.587 247.1 727.427 248.74C728.267 250.34 729.427 251.62 730.907 252.58C732.427 253.5 734.127 253.96 736.007 253.96ZM758.641 259V227.5H764.881V234.22L763.741 234.94C764.061 233.9 764.561 232.9 765.241 231.94C765.961 230.98 766.821 230.14 767.821 229.42C768.861 228.66 769.961 228.06 771.121 227.62C772.321 227.18 773.541 226.96 774.781 226.96C776.581 226.96 778.161 227.26 779.521 227.86C780.881 228.46 782.001 229.36 782.881 230.56C783.761 231.76 784.401 233.26 784.801 235.06L783.841 234.82L784.261 233.8C784.701 232.88 785.301 232.02 786.061 231.22C786.861 230.38 787.761 229.64 788.761 229C789.761 228.36 790.821 227.86 791.941 227.5C793.061 227.14 794.161 226.96 795.241 226.96C797.601 226.96 799.541 227.44 801.061 228.4C802.621 229.36 803.781 230.82 804.541 232.78C805.341 234.74 805.741 237.18 805.741 240.1V259H799.501V240.46C799.501 238.66 799.261 237.2 798.781 236.08C798.341 234.92 797.661 234.06 796.741 233.5C795.821 232.94 794.641 232.66 793.201 232.66C792.081 232.66 791.021 232.86 790.021 233.26C789.061 233.62 788.221 234.14 787.501 234.82C786.781 235.5 786.221 236.3 785.821 237.22C785.421 238.1 785.221 239.08 785.221 240.16V259H778.981V240.34C778.981 238.7 778.741 237.32 778.261 236.2C777.781 235.04 777.081 234.16 776.161 233.56C775.241 232.96 774.121 232.66 772.801 232.66C771.681 232.66 770.641 232.86 769.681 233.26C768.721 233.62 767.881 234.14 767.161 234.82C766.441 235.46 765.881 236.24 765.481 237.16C765.081 238.04 764.881 239 764.881 240.04V259H758.641ZM814.015 272.2V227.5H820.255V234.7L819.295 234.16C819.535 232.96 820.215 231.82 821.335 230.74C822.455 229.62 823.815 228.72 825.415 228.04C827.055 227.32 828.735 226.96 830.455 226.96C833.295 226.96 835.815 227.66 838.015 229.06C840.215 230.46 841.955 232.38 843.235 234.82C844.515 237.26 845.155 240.06 845.155 243.22C845.155 246.34 844.515 249.14 843.235 251.62C841.995 254.06 840.275 256 838.075 257.44C835.875 258.84 833.395 259.54 830.635 259.54C828.795 259.54 827.015 259.18 825.295 258.46C823.575 257.7 822.115 256.74 820.915 255.58C819.715 254.42 818.975 253.22 818.695 251.98L820.255 251.14V272.2H814.015ZM829.615 253.84C831.455 253.84 833.095 253.38 834.535 252.46C835.975 251.54 837.115 250.28 837.955 248.68C838.795 247.08 839.215 245.26 839.215 243.22C839.215 241.18 838.795 239.38 837.955 237.82C837.155 236.22 836.035 234.96 834.595 234.04C833.155 233.12 831.495 232.66 829.615 232.66C827.735 232.66 826.075 233.12 824.635 234.04C823.195 234.92 822.055 236.16 821.215 237.76C820.375 239.36 819.955 241.18 819.955 243.22C819.955 245.26 820.375 247.08 821.215 248.68C822.055 250.28 823.195 251.54 824.635 252.46C826.075 253.38 827.735 253.84 829.615 253.84ZM851.987 259V214.6H858.167V259H851.987ZM881.04 259.6C877.8 259.6 874.92 258.92 872.4 257.56C869.92 256.16 867.96 254.26 866.52 251.86C865.12 249.46 864.42 246.7 864.42 243.58C864.42 241.1 864.82 238.84 865.62 236.8C866.42 234.76 867.52 233 868.92 231.52C870.36 230 872.06 228.84 874.02 228.04C876.02 227.2 878.18 226.78 880.5 226.78C882.54 226.78 884.44 227.18 886.2 227.98C887.96 228.74 889.48 229.8 890.76 231.16C892.08 232.52 893.08 234.14 893.76 236.02C894.48 237.86 894.82 239.88 894.78 242.08L894.72 244.72H868.98L867.6 239.8H889.38L888.48 240.82V239.38C888.36 238.06 887.92 236.88 887.16 235.84C886.4 234.8 885.44 233.98 884.28 233.38C883.12 232.78 881.86 232.48 880.5 232.48C878.34 232.48 876.52 232.9 875.04 233.74C873.56 234.54 872.44 235.74 871.68 237.34C870.92 238.9 870.54 240.84 870.54 243.16C870.54 245.36 871 247.28 871.92 248.92C872.84 250.52 874.14 251.76 875.82 252.64C877.5 253.52 879.44 253.96 881.64 253.96C883.2 253.96 884.64 253.7 885.96 253.18C887.32 252.66 888.78 251.72 890.34 250.36L893.46 254.74C892.5 255.7 891.32 256.54 889.92 257.26C888.56 257.98 887.1 258.56 885.54 259C884.02 259.4 882.52 259.6 881.04 259.6ZM905.396 259V219.46H911.576V259H905.396ZM898.856 233.5V227.5H918.896V233.5H898.856ZM925.543 259V227.5H931.723V259H925.543ZM928.543 220.54C927.223 220.54 926.203 220.2 925.483 219.52C924.763 218.84 924.403 217.88 924.403 216.64C924.403 215.48 924.763 214.54 925.483 213.82C926.243 213.1 927.263 212.74 928.543 212.74C929.863 212.74 930.883 213.08 931.603 213.76C932.323 214.44 932.683 215.4 932.683 216.64C932.683 217.8 932.303 218.74 931.543 219.46C930.823 220.18 929.823 220.54 928.543 220.54ZM955.382 259.6C952.302 259.6 949.542 258.9 947.102 257.5C944.702 256.06 942.802 254.12 941.402 251.68C940.002 249.2 939.302 246.38 939.302 243.22C939.302 240.06 940.002 237.26 941.402 234.82C942.802 232.34 944.702 230.4 947.102 229C949.542 227.56 952.302 226.84 955.382 226.84C958.422 226.84 961.142 227.56 963.542 229C965.982 230.4 967.902 232.34 969.302 234.82C970.702 237.26 971.402 240.06 971.402 243.22C971.402 246.38 970.702 249.2 969.302 251.68C967.902 254.12 965.982 256.06 963.542 257.5C961.142 258.9 958.422 259.6 955.382 259.6ZM955.382 253.96C957.262 253.96 958.942 253.5 960.422 252.58C961.902 251.62 963.062 250.34 963.902 248.74C964.742 247.1 965.142 245.26 965.102 243.22C965.142 241.14 964.742 239.3 963.902 237.7C963.062 236.06 961.902 234.78 960.422 233.86C958.942 232.94 957.262 232.48 955.382 232.48C953.502 232.48 951.802 232.96 950.282 233.92C948.802 234.84 947.642 236.12 946.802 237.76C945.962 239.36 945.562 241.18 945.602 243.22C945.562 245.26 945.962 247.1 946.802 248.74C947.642 250.34 948.802 251.62 950.282 252.58C951.802 253.5 953.502 253.96 955.382 253.96ZM978.136 259V227.5H984.316V233.98L983.236 234.7C983.636 233.3 984.416 232.02 985.576 230.86C986.736 229.66 988.116 228.7 989.716 227.98C991.316 227.22 992.956 226.84 994.636 226.84C997.036 226.84 999.036 227.32 1000.64 228.28C1002.24 229.2 1003.44 230.62 1004.24 232.54C1005.04 234.46 1005.44 236.88 1005.44 239.8V259H999.256V240.22C999.256 238.42 999.016 236.94 998.536 235.78C998.056 234.58 997.316 233.72 996.316 233.2C995.316 232.64 994.076 232.4 992.596 232.48C991.396 232.48 990.296 232.68 989.296 233.08C988.296 233.44 987.416 233.96 986.656 234.64C985.936 235.32 985.356 236.12 984.916 237.04C984.516 237.92 984.316 238.88 984.316 239.92V259H981.256C980.736 259 980.216 259 979.696 259C979.176 259 978.656 259 978.136 259Z" fill="white"/>
<path d="M578.989 310V306.522H584.3V280.578H578.989V277.1H593.277V280.578H587.966V306.522H593.277V310H578.989ZM600.014 310V285.466H603.492L603.633 290.589L603.069 290.824C603.382 289.759 603.993 288.787 604.902 287.91C605.811 287.033 606.892 286.328 608.145 285.795C609.43 285.231 610.746 284.949 612.093 284.949C613.91 284.949 615.43 285.309 616.652 286.03C617.874 286.751 618.798 287.863 619.425 289.367C620.052 290.871 620.365 292.782 620.365 295.101V310H616.793V295.289C616.793 293.66 616.574 292.328 616.135 291.294C615.728 290.229 615.085 289.445 614.208 288.944C613.331 288.443 612.25 288.208 610.965 288.239C609.9 288.239 608.913 288.427 608.004 288.803C607.095 289.148 606.312 289.633 605.654 290.26C604.996 290.887 604.479 291.607 604.103 292.422C603.727 293.237 603.539 294.114 603.539 295.054V310H601.8C601.581 310 601.33 310 601.048 310C600.766 310 600.421 310 600.014 310ZM647.646 310V280.672H638.246V277.1H661.088V280.672H651.312V310H647.646ZM665.878 310V275.22H669.403V290.824L668.698 291.529C669.043 290.244 669.685 289.116 670.625 288.145C671.565 287.142 672.662 286.359 673.915 285.795C675.2 285.231 676.5 284.949 677.816 284.949C679.696 284.949 681.263 285.309 682.516 286.03C683.77 286.751 684.694 287.863 685.289 289.367C685.916 290.871 686.229 292.782 686.229 295.101V310H682.657V295.289C682.657 293.66 682.438 292.328 681.999 291.294C681.592 290.229 680.95 289.445 680.072 288.944C679.195 288.443 678.098 288.208 676.782 288.239C675.748 288.239 674.777 288.427 673.868 288.803C672.96 289.148 672.176 289.633 671.518 290.26C670.86 290.887 670.343 291.607 669.967 292.422C669.591 293.237 669.403 294.114 669.403 295.054V310H667.664C667.445 310 667.194 310 666.912 310C666.63 310 666.286 310 665.878 310ZM703.768 310.47C701.324 310.47 699.147 309.937 697.235 308.872C695.355 307.807 693.883 306.318 692.817 304.407C691.752 302.496 691.219 300.302 691.219 297.827C691.219 295.916 691.517 294.192 692.112 292.657C692.708 291.09 693.538 289.727 694.603 288.568C695.7 287.409 697 286.516 698.504 285.889C700.008 285.231 701.638 284.902 703.392 284.902C705.053 284.902 706.557 285.2 707.904 285.795C709.283 286.39 710.458 287.221 711.429 288.286C712.432 289.32 713.184 290.558 713.685 291.999C714.187 293.44 714.406 295.023 714.343 296.746L714.296 298.391H693.851L693.334 295.43H711.617L710.771 296.229V295.101C710.709 293.973 710.38 292.892 709.784 291.858C709.189 290.793 708.343 289.931 707.246 289.273C706.181 288.615 704.896 288.286 703.392 288.286C701.638 288.286 700.118 288.646 698.833 289.367C697.549 290.056 696.562 291.09 695.872 292.469C695.183 293.848 694.838 295.555 694.838 297.592C694.838 299.535 695.214 301.227 695.966 302.668C696.718 304.078 697.784 305.175 699.162 305.958C700.572 306.741 702.264 307.133 704.238 307.133C705.398 307.133 706.541 306.945 707.669 306.569C708.829 306.162 710.098 305.378 711.476 304.219L713.309 306.757C712.589 307.478 711.727 308.12 710.724 308.684C709.722 309.217 708.625 309.655 707.434 310C706.244 310.313 705.022 310.47 703.768 310.47ZM747.563 310.47C745.213 310.47 743.051 310.063 741.077 309.248C739.103 308.402 737.395 307.227 735.954 305.723C734.512 304.188 733.384 302.386 732.57 300.318C731.786 298.25 731.395 295.994 731.395 293.55C731.395 291.137 731.786 288.928 732.57 286.923C733.384 284.886 734.528 283.116 736.001 281.612C737.473 280.077 739.181 278.902 741.124 278.087C743.066 277.272 745.197 276.865 747.516 276.865C749.051 276.865 750.571 277.116 752.075 277.617C753.579 278.087 754.957 278.745 756.211 279.591C757.495 280.437 758.545 281.408 759.36 282.505L756.822 285.137C756.038 284.197 755.13 283.382 754.096 282.693C753.093 282.004 752.028 281.471 750.9 281.095C749.772 280.719 748.644 280.531 747.516 280.531C745.761 280.531 744.116 280.86 742.581 281.518C741.077 282.145 739.776 283.038 738.68 284.197C737.583 285.356 736.721 286.735 736.095 288.333C735.499 289.931 735.202 291.67 735.202 293.55C735.202 295.493 735.499 297.279 736.095 298.908C736.721 300.537 737.599 301.947 738.727 303.138C739.886 304.297 741.233 305.206 742.769 305.864C744.335 306.491 746.074 306.804 747.986 306.804C749.114 306.804 750.242 306.647 751.37 306.334C752.498 305.989 753.532 305.519 754.472 304.924C755.412 304.329 756.211 303.655 756.869 302.903L758.749 305.958C758.028 306.835 757.057 307.619 755.835 308.308C754.644 308.966 753.328 309.499 751.887 309.906C750.445 310.282 749.004 310.47 747.563 310.47ZM764.285 310V285.466H767.81L767.904 291.999L767.528 291.106C767.872 290.009 768.421 288.991 769.173 288.051C769.956 287.111 770.88 286.359 771.946 285.795C773.011 285.231 774.186 284.949 775.471 284.949C776.003 284.949 776.505 284.996 776.975 285.09C777.445 285.153 777.836 285.247 778.15 285.372L777.163 289.32C776.755 289.132 776.332 289.007 775.894 288.944C775.486 288.85 775.095 288.803 774.719 288.803C773.653 288.803 772.698 288.991 771.852 289.367C771.006 289.743 770.285 290.276 769.69 290.965C769.094 291.623 768.64 292.391 768.327 293.268C768.013 294.145 767.857 295.085 767.857 296.088V310H764.285ZM790.35 310.47C788.219 310.47 786.292 309.922 784.569 308.825C782.846 307.697 781.483 306.177 780.48 304.266C779.477 302.323 778.976 300.13 778.976 297.686C778.976 295.211 779.493 293.017 780.527 291.106C781.561 289.195 782.94 287.691 784.663 286.594C786.418 285.497 788.376 284.949 790.538 284.949C791.823 284.949 793.013 285.137 794.11 285.513C795.207 285.889 796.178 286.422 797.024 287.111C797.901 287.769 798.622 288.552 799.186 289.461C799.781 290.338 800.189 291.294 800.408 292.328L799.374 291.811L799.515 285.466H803.04V310H799.468V303.984L800.408 303.373C800.189 304.313 799.766 305.222 799.139 306.099C798.512 306.945 797.745 307.697 796.836 308.355C795.959 309.013 794.956 309.53 793.828 309.906C792.731 310.282 791.572 310.47 790.35 310.47ZM791.149 307.086C792.778 307.086 794.235 306.694 795.52 305.911C796.805 305.096 797.807 303.984 798.528 302.574C799.28 301.133 799.656 299.503 799.656 297.686C799.656 295.869 799.28 294.255 798.528 292.845C797.807 291.435 796.805 290.323 795.52 289.508C794.235 288.693 792.778 288.286 791.149 288.286C789.488 288.286 788.016 288.693 786.731 289.508C785.478 290.323 784.475 291.435 783.723 292.845C783.002 294.255 782.642 295.869 782.642 297.686C782.642 299.472 783.002 301.086 783.723 302.527C784.444 303.937 785.446 305.049 786.731 305.864C788.016 306.679 789.488 307.086 791.149 307.086ZM817.945 310.47C815.845 310.47 813.965 310.078 812.305 309.295C810.644 308.512 809.328 307.478 808.357 306.193L810.848 304.031C811.756 305.128 812.822 305.958 814.044 306.522C815.297 307.086 816.691 307.368 818.227 307.368C819.01 307.368 819.715 307.29 820.342 307.133C820.968 306.945 821.517 306.679 821.987 306.334C822.457 305.989 822.817 305.582 823.068 305.112C823.318 304.642 823.444 304.125 823.444 303.561C823.444 302.527 822.989 301.665 822.081 300.976C821.673 300.694 821.094 300.412 820.342 300.13C819.59 299.817 818.681 299.519 817.616 299.237C815.861 298.736 814.404 298.234 813.245 297.733C812.085 297.2 811.177 296.589 810.519 295.9C810.049 295.336 809.688 294.725 809.438 294.067C809.218 293.409 809.109 292.688 809.109 291.905C809.109 290.902 809.312 289.978 809.72 289.132C810.158 288.286 810.754 287.55 811.506 286.923C812.289 286.265 813.198 285.779 814.232 285.466C815.297 285.121 816.441 284.949 817.663 284.949C818.822 284.949 819.966 285.106 821.094 285.419C822.222 285.732 823.271 286.187 824.243 286.782C825.214 287.377 826.044 288.082 826.734 288.897L824.572 291.247C823.976 290.62 823.318 290.056 822.598 289.555C821.877 289.054 821.109 288.662 820.295 288.38C819.511 288.098 818.697 287.957 817.851 287.957C817.099 287.957 816.394 288.051 815.736 288.239C815.109 288.427 814.561 288.693 814.091 289.038C813.652 289.351 813.307 289.743 813.057 290.213C812.837 290.683 812.728 291.2 812.728 291.764C812.728 292.234 812.822 292.657 813.01 293.033C813.198 293.409 813.464 293.738 813.809 294.02C814.247 294.365 814.858 294.694 815.642 295.007C816.456 295.289 817.459 295.587 818.65 295.9C820.028 296.276 821.188 296.668 822.128 297.075C823.099 297.451 823.898 297.905 824.525 298.438C825.371 299.065 825.966 299.785 826.311 300.6C826.687 301.415 826.875 302.339 826.875 303.373C826.875 304.752 826.483 305.974 825.7 307.039C824.948 308.104 823.898 308.95 822.551 309.577C821.203 310.172 819.668 310.47 817.945 310.47ZM832.398 310V275.22H835.923V290.824L835.218 291.529C835.562 290.244 836.205 289.116 837.145 288.145C838.085 287.142 839.181 286.359 840.435 285.795C841.719 285.231 843.02 284.949 844.336 284.949C846.216 284.949 847.782 285.309 849.036 286.03C850.289 286.751 851.213 287.863 851.809 289.367C852.435 290.871 852.749 292.782 852.749 295.101V310H849.177V295.289C849.177 293.66 848.957 292.328 848.519 291.294C848.111 290.229 847.469 289.445 846.592 288.944C845.714 288.443 844.618 288.208 843.302 288.239C842.268 288.239 841.296 288.427 840.388 288.803C839.479 289.148 838.696 289.633 838.038 290.26C837.38 290.887 836.863 291.607 836.487 292.422C836.111 293.237 835.923 294.114 835.923 295.054V310H834.184C833.964 310 833.714 310 833.432 310C833.15 310 832.805 310 832.398 310ZM887.691 310.47C885.341 310.47 883.179 310.063 881.205 309.248C879.231 308.402 877.523 307.227 876.082 305.723C874.64 304.188 873.512 302.386 872.698 300.318C871.914 298.25 871.523 295.994 871.523 293.55C871.523 291.137 871.914 288.928 872.698 286.923C873.512 284.886 874.656 283.116 876.129 281.612C877.601 280.077 879.309 278.902 881.252 278.087C883.194 277.272 885.325 276.865 887.644 276.865C889.179 276.865 890.699 277.116 892.203 277.617C893.707 278.087 895.085 278.745 896.339 279.591C897.623 280.437 898.673 281.408 899.488 282.505L896.95 285.137C896.166 284.197 895.258 283.382 894.224 282.693C893.221 282.004 892.156 281.471 891.028 281.095C889.9 280.719 888.772 280.531 887.644 280.531C885.889 280.531 884.244 280.86 882.709 281.518C881.205 282.145 879.904 283.038 878.808 284.197C877.711 285.356 876.849 286.735 876.223 288.333C875.627 289.931 875.33 291.67 875.33 293.55C875.33 295.493 875.627 297.279 876.223 298.908C876.849 300.537 877.727 301.947 878.855 303.138C880.014 304.297 881.361 305.206 882.897 305.864C884.463 306.491 886.202 306.804 888.114 306.804C889.242 306.804 890.37 306.647 891.498 306.334C892.626 305.989 893.66 305.519 894.6 304.924C895.54 304.329 896.339 303.655 896.997 302.903L898.877 305.958C898.156 306.835 897.185 307.619 895.963 308.308C894.772 308.966 893.456 309.499 892.015 309.906C890.573 310.282 889.132 310.47 887.691 310.47ZM915.269 310.47C912.825 310.47 910.648 309.922 908.736 308.825C906.856 307.728 905.368 306.209 904.271 304.266C903.206 302.323 902.673 300.114 902.673 297.639C902.673 295.195 903.206 293.017 904.271 291.106C905.368 289.195 906.856 287.691 908.736 286.594C910.648 285.497 912.825 284.949 915.269 284.949C917.682 284.949 919.828 285.497 921.708 286.594C923.62 287.691 925.108 289.195 926.173 291.106C927.27 293.017 927.818 295.195 927.818 297.639C927.818 300.114 927.27 302.323 926.173 304.266C925.108 306.209 923.62 307.728 921.708 308.825C919.828 309.922 917.682 310.47 915.269 310.47ZM915.269 307.133C916.993 307.133 918.528 306.726 919.875 305.911C921.223 305.065 922.272 303.937 923.024 302.527C923.776 301.086 924.152 299.456 924.152 297.639C924.152 295.822 923.776 294.208 923.024 292.798C922.272 291.388 921.223 290.291 919.875 289.508C918.528 288.693 916.993 288.286 915.269 288.286C913.546 288.286 911.995 288.693 910.616 289.508C909.269 290.291 908.204 291.404 907.42 292.845C906.668 294.255 906.308 295.853 906.339 297.639C906.308 299.456 906.668 301.086 907.42 302.527C908.204 303.937 909.269 305.065 910.616 305.911C911.995 306.726 913.546 307.133 915.269 307.133ZM941.656 310.47C939.776 310.47 938.178 310.094 936.862 309.342C935.578 308.559 934.591 307.431 933.901 305.958C933.243 304.485 932.914 302.652 932.914 300.459V285.466H936.486V299.754C936.486 301.415 936.706 302.809 937.144 303.937C937.614 305.034 938.304 305.864 939.212 306.428C940.152 306.992 941.296 307.274 942.643 307.274C943.677 307.274 944.633 307.102 945.51 306.757C946.388 306.381 947.155 305.88 947.813 305.253C948.471 304.626 948.988 303.89 949.364 303.044C949.74 302.198 949.928 301.305 949.928 300.365V285.466H953.453V310H949.975L949.834 304.83L950.398 304.548C950.022 305.645 949.396 306.647 948.518 307.556C947.641 308.433 946.591 309.138 945.369 309.671C944.179 310.204 942.941 310.47 941.656 310.47ZM960.317 310V285.466H963.842L963.936 291.999L963.56 291.106C963.904 290.009 964.453 288.991 965.205 288.051C965.988 287.111 966.912 286.359 967.978 285.795C969.043 285.231 970.218 284.949 971.503 284.949C972.035 284.949 972.537 284.996 973.007 285.09C973.477 285.153 973.868 285.247 974.182 285.372L973.195 289.32C972.787 289.132 972.364 289.007 971.926 288.944C971.518 288.85 971.127 288.803 970.751 288.803C969.685 288.803 968.73 288.991 967.884 289.367C967.038 289.743 966.317 290.276 965.722 290.965C965.126 291.623 964.672 292.391 964.359 293.268C964.045 294.145 963.889 295.085 963.889 296.088V310H960.317ZM985.887 310.47C983.788 310.47 981.908 310.078 980.247 309.295C978.586 308.512 977.27 307.478 976.299 306.193L978.79 304.031C979.699 305.128 980.764 305.958 981.986 306.522C983.239 307.086 984.634 307.368 986.169 307.368C986.952 307.368 987.657 307.29 988.284 307.133C988.911 306.945 989.459 306.679 989.929 306.334C990.399 305.989 990.759 305.582 991.01 305.112C991.261 304.642 991.386 304.125 991.386 303.561C991.386 302.527 990.932 301.665 990.023 300.976C989.616 300.694 989.036 300.412 988.284 300.13C987.532 299.817 986.623 299.519 985.558 299.237C983.803 298.736 982.346 298.234 981.187 297.733C980.028 297.2 979.119 296.589 978.461 295.9C977.991 295.336 977.631 294.725 977.38 294.067C977.161 293.409 977.051 292.688 977.051 291.905C977.051 290.902 977.255 289.978 977.662 289.132C978.101 288.286 978.696 287.55 979.448 286.923C980.231 286.265 981.14 285.779 982.174 285.466C983.239 285.121 984.383 284.949 985.605 284.949C986.764 284.949 987.908 285.106 989.036 285.419C990.164 285.732 991.214 286.187 992.185 286.782C993.156 287.377 993.987 288.082 994.676 288.897L992.514 291.247C991.919 290.62 991.261 290.056 990.54 289.555C989.819 289.054 989.052 288.662 988.237 288.38C987.454 288.098 986.639 287.957 985.793 287.957C985.041 287.957 984.336 288.051 983.678 288.239C983.051 288.427 982.503 288.693 982.033 289.038C981.594 289.351 981.25 289.743 980.999 290.213C980.78 290.683 980.67 291.2 980.67 291.764C980.67 292.234 980.764 292.657 980.952 293.033C981.14 293.409 981.406 293.738 981.751 294.02C982.19 294.365 982.801 294.694 983.584 295.007C984.399 295.289 985.401 295.587 986.592 295.9C987.971 296.276 989.13 296.668 990.07 297.075C991.041 297.451 991.84 297.905 992.467 298.438C993.313 299.065 993.908 299.785 994.253 300.6C994.629 301.415 994.817 302.339 994.817 303.373C994.817 304.752 994.425 305.974 993.642 307.039C992.89 308.104 991.84 308.95 990.493 309.577C989.146 310.172 987.61 310.47 985.887 310.47ZM1011.15 310.47C1008.71 310.47 1006.53 309.937 1004.62 308.872C1002.74 307.807 1001.26 306.318 1000.2 304.407C999.134 302.496 998.601 300.302 998.601 297.827C998.601 295.916 998.899 294.192 999.494 292.657C1000.09 291.09 1000.92 289.727 1001.99 288.568C1003.08 287.409 1004.38 286.516 1005.89 285.889C1007.39 285.231 1009.02 284.902 1010.77 284.902C1012.43 284.902 1013.94 285.2 1015.29 285.795C1016.66 286.39 1017.84 287.221 1018.81 288.286C1019.81 289.32 1020.57 290.558 1021.07 291.999C1021.57 293.44 1021.79 295.023 1021.73 296.746L1021.68 298.391H1001.23L1000.72 295.43H1019L1018.15 296.229V295.101C1018.09 293.973 1017.76 292.892 1017.17 291.858C1016.57 290.793 1015.72 289.931 1014.63 289.273C1013.56 288.615 1012.28 288.286 1010.77 288.286C1009.02 288.286 1007.5 288.646 1006.22 289.367C1004.93 290.056 1003.94 291.09 1003.25 292.469C1002.56 293.848 1002.22 295.555 1002.22 297.592C1002.22 299.535 1002.6 301.227 1003.35 302.668C1004.1 304.078 1005.17 305.175 1006.54 305.958C1007.95 306.741 1009.65 307.133 1011.62 307.133C1012.78 307.133 1013.92 306.945 1015.05 306.569C1016.21 306.162 1017.48 305.378 1018.86 304.219L1020.69 306.757C1019.97 307.478 1019.11 308.12 1018.11 308.684C1017.1 309.217 1016.01 309.655 1014.82 310C1013.63 310.313 1012.4 310.47 1011.15 310.47Z" fill="white"/>
<path d="M426.834 372.04V457H400.194V423.88H374.874V457H348.234V372.04H374.874V402.64H400.194V372.04H426.834ZM480.22 457.84C472.22 457.84 464.86 455.96 458.14 452.2C451.5 448.44 446.22 443.24 442.3 436.6C438.38 429.96 436.42 422.48 436.42 414.16C436.42 405.84 438.38 398.36 442.3 391.72C446.22 385.08 451.5 379.92 458.14 376.24C464.86 372.48 472.22 370.6 480.22 370.6C488.22 370.6 495.54 372.48 502.18 376.24C508.82 379.92 514.06 385.08 517.9 391.72C521.82 398.36 523.78 405.84 523.78 414.16C523.78 422.48 521.82 429.96 517.9 436.6C514.06 443.24 508.78 448.44 502.06 452.2C495.42 455.96 488.14 457.84 480.22 457.84ZM480.22 433C485.5 433 489.58 431.32 492.46 427.96C495.34 424.52 496.78 419.92 496.78 414.16C496.78 408.32 495.34 403.72 492.46 400.36C489.58 396.92 485.5 395.2 480.22 395.2C474.86 395.2 470.74 396.92 467.86 400.36C464.98 403.72 463.54 408.32 463.54 414.16C463.54 419.92 464.98 424.52 467.86 427.96C470.74 431.32 474.86 433 480.22 433ZM655.791 372.04L636.351 457H603.231L593.391 408.76L583.551 457H550.431L530.991 372.04H559.671L567.351 425.56L578.871 372.04H607.911L619.431 425.56L627.111 372.04H655.791ZM752.454 372.04V393.16H729.894V457H703.254V393.16H680.934V372.04H752.454ZM801.08 457.84C793.08 457.84 785.72 455.96 779 452.2C772.36 448.44 767.08 443.24 763.16 436.6C759.24 429.96 757.28 422.48 757.28 414.16C757.28 405.84 759.24 398.36 763.16 391.72C767.08 385.08 772.36 379.92 779 376.24C785.72 372.48 793.08 370.6 801.08 370.6C809.08 370.6 816.4 372.48 823.04 376.24C829.68 379.92 834.92 385.08 838.76 391.72C842.68 398.36 844.64 405.84 844.64 414.16C844.64 422.48 842.68 429.96 838.76 436.6C834.92 443.24 829.64 448.44 822.92 452.2C816.28 455.96 809 457.84 801.08 457.84ZM801.08 433C806.36 433 810.44 431.32 813.32 427.96C816.2 424.52 817.64 419.92 817.64 414.16C817.64 408.32 816.2 403.72 813.32 400.36C810.44 396.92 806.36 395.2 801.08 395.2C795.72 395.2 791.6 396.92 788.72 400.36C785.84 403.72 784.4 408.32 784.4 414.16C784.4 419.92 785.84 424.52 788.72 427.96C791.6 431.32 795.72 433 801.08 433ZM934.641 372.04V393.16H901.281V404.92H925.281V424.96H901.281V457H874.641V372.04H934.641ZM970.304 436.84H995.984V457H943.664V372.04H970.304V436.84ZM1058.85 444.16H1030.53L1026.33 457H998.367L1029.45 372.04H1060.17L1091.13 457H1063.05L1058.85 444.16ZM1052.37 424.12L1044.69 400.48L1037.01 424.12H1052.37ZM1130.42 457.84C1120.26 457.84 1111.86 455.48 1105.22 450.76C1098.66 445.96 1095.1 438.96 1094.54 429.76H1122.86C1123.26 434.64 1125.42 437.08 1129.34 437.08C1130.78 437.08 1131.98 436.76 1132.94 436.12C1133.98 435.4 1134.5 434.32 1134.5 432.88C1134.5 430.88 1133.42 429.28 1131.26 428.08C1129.1 426.8 1125.74 425.36 1121.18 423.76C1115.74 421.84 1111.22 419.96 1107.62 418.12C1104.1 416.28 1101.06 413.6 1098.5 410.08C1095.94 406.56 1094.7 402.04 1094.78 396.52C1094.78 391 1096.18 386.32 1098.98 382.48C1101.86 378.56 1105.74 375.6 1110.62 373.6C1115.58 371.6 1121.14 370.6 1127.3 370.6C1137.7 370.6 1145.94 373 1152.02 377.8C1158.18 382.6 1161.42 389.36 1161.74 398.08H1133.06C1132.98 395.68 1132.38 393.96 1131.26 392.92C1130.14 391.88 1128.78 391.36 1127.18 391.36C1126.06 391.36 1125.14 391.76 1124.42 392.56C1123.7 393.28 1123.34 394.32 1123.34 395.68C1123.34 397.6 1124.38 399.2 1126.46 400.48C1128.62 401.68 1132.02 403.16 1136.66 404.92C1142.02 406.92 1146.42 408.84 1149.86 410.68C1153.38 412.52 1156.42 415.08 1158.98 418.36C1161.54 421.64 1162.82 425.76 1162.82 430.72C1162.82 435.92 1161.54 440.6 1158.98 444.76C1156.42 448.84 1152.7 452.04 1147.82 454.36C1142.94 456.68 1137.14 457.84 1130.42 457.84ZM1223.54 457L1198.82 420.16V457H1172.18V372.04H1198.82V407.8L1223.18 372.04H1253.3L1224.02 412.72L1255.22 457H1223.54Z" fill="#0047FF"/>
<line x1="407" y1="734" x2="1192" y2="734" stroke="white" stroke-width="4"/>
<path d="M654.344 595V560H668.194C670.028 560 671.678 560.45 673.144 561.35C674.611 562.25 675.778 563.5 676.644 565.1C677.511 566.667 677.944 568.433 677.944 570.4C677.944 572.467 677.511 574.317 676.644 575.95C675.778 577.55 674.611 578.833 673.144 579.8C671.678 580.733 670.028 581.2 668.194 581.2H658.244V595H654.344ZM658.244 577.4H668.394C669.428 577.4 670.344 577.1 671.144 576.5C671.978 575.867 672.644 575.033 673.144 574C673.644 572.933 673.894 571.717 673.894 570.35C673.894 569.117 673.644 568.017 673.144 567.05C672.644 566.05 671.978 565.267 671.144 564.7C670.344 564.1 669.428 563.8 668.394 563.8H658.244V577.4ZM683.948 595V568.9H687.698L687.798 575.85L687.398 574.9C687.765 573.733 688.348 572.65 689.148 571.65C689.981 570.65 690.965 569.85 692.098 569.25C693.231 568.65 694.481 568.35 695.848 568.35C696.415 568.35 696.948 568.4 697.448 568.5C697.948 568.567 698.365 568.667 698.698 568.8L697.648 573C697.215 572.8 696.765 572.667 696.298 572.6C695.865 572.5 695.448 572.45 695.048 572.45C693.915 572.45 692.898 572.65 691.998 573.05C691.098 573.45 690.331 574.017 689.698 574.75C689.065 575.45 688.581 576.267 688.248 577.2C687.915 578.133 687.748 579.133 687.748 580.2V595H683.948ZM712.977 595.5C710.377 595.5 708.06 594.933 706.027 593.8C704.027 592.667 702.46 591.083 701.327 589.05C700.194 587.017 699.627 584.683 699.627 582.05C699.627 580.017 699.944 578.183 700.577 576.55C701.21 574.883 702.094 573.433 703.227 572.2C704.394 570.967 705.777 570.017 707.377 569.35C708.977 568.65 710.71 568.3 712.577 568.3C714.344 568.3 715.944 568.617 717.377 569.25C718.844 569.883 720.094 570.767 721.127 571.9C722.194 573 722.994 574.317 723.527 575.85C724.06 577.383 724.294 579.067 724.227 580.9L724.177 582.65H702.427L701.877 579.5H721.327L720.427 580.35V579.15C720.36 577.95 720.01 576.8 719.377 575.7C718.744 574.567 717.844 573.65 716.677 572.95C715.544 572.25 714.177 571.9 712.577 571.9C710.71 571.9 709.094 572.283 707.727 573.05C706.36 573.783 705.31 574.883 704.577 576.35C703.844 577.817 703.477 579.633 703.477 581.8C703.477 583.867 703.877 585.667 704.677 587.2C705.477 588.7 706.61 589.867 708.077 590.7C709.577 591.533 711.377 591.95 713.477 591.95C714.71 591.95 715.927 591.75 717.127 591.35C718.36 590.917 719.71 590.083 721.177 588.85L723.127 591.55C722.36 592.317 721.444 593 720.377 593.6C719.31 594.167 718.144 594.633 716.877 595C715.61 595.333 714.31 595.5 712.977 595.5ZM738.103 595.5C735.87 595.5 733.87 595.083 732.103 594.25C730.337 593.417 728.937 592.317 727.903 590.95L730.553 588.65C731.52 589.817 732.653 590.7 733.953 591.3C735.287 591.9 736.77 592.2 738.403 592.2C739.237 592.2 739.987 592.117 740.653 591.95C741.32 591.75 741.903 591.467 742.403 591.1C742.903 590.733 743.287 590.3 743.553 589.8C743.82 589.3 743.953 588.75 743.953 588.15C743.953 587.05 743.47 586.133 742.503 585.4C742.07 585.1 741.453 584.8 740.653 584.5C739.853 584.167 738.887 583.85 737.753 583.55C735.887 583.017 734.337 582.483 733.103 581.95C731.87 581.383 730.903 580.733 730.203 580C729.703 579.4 729.32 578.75 729.053 578.05C728.82 577.35 728.703 576.583 728.703 575.75C728.703 574.683 728.92 573.7 729.353 572.8C729.82 571.9 730.453 571.117 731.253 570.45C732.087 569.75 733.053 569.233 734.153 568.9C735.287 568.533 736.503 568.35 737.803 568.35C739.037 568.35 740.253 568.517 741.453 568.85C742.653 569.183 743.77 569.667 744.803 570.3C745.837 570.933 746.72 571.683 747.453 572.55L745.153 575.05C744.52 574.383 743.82 573.783 743.053 573.25C742.287 572.717 741.47 572.3 740.603 572C739.77 571.7 738.903 571.55 738.003 571.55C737.203 571.55 736.453 571.65 735.753 571.85C735.087 572.05 734.503 572.333 734.003 572.7C733.537 573.033 733.17 573.45 732.903 573.95C732.67 574.45 732.553 575 732.553 575.6C732.553 576.1 732.653 576.55 732.853 576.95C733.053 577.35 733.337 577.7 733.703 578C734.17 578.367 734.82 578.717 735.653 579.05C736.52 579.35 737.587 579.667 738.853 580C740.32 580.4 741.553 580.817 742.553 581.25C743.587 581.65 744.437 582.133 745.103 582.7C746.003 583.367 746.637 584.133 747.003 585C747.403 585.867 747.603 586.85 747.603 587.95C747.603 589.417 747.187 590.717 746.353 591.85C745.553 592.983 744.437 593.883 743.003 594.55C741.57 595.183 739.937 595.5 738.103 595.5ZM764.979 595.5C762.379 595.5 760.062 594.933 758.029 593.8C756.029 592.667 754.462 591.083 753.329 589.05C752.196 587.017 751.629 584.683 751.629 582.05C751.629 580.017 751.946 578.183 752.579 576.55C753.212 574.883 754.096 573.433 755.229 572.2C756.396 570.967 757.779 570.017 759.379 569.35C760.979 568.65 762.712 568.3 764.579 568.3C766.346 568.3 767.946 568.617 769.379 569.25C770.846 569.883 772.096 570.767 773.129 571.9C774.196 573 774.996 574.317 775.529 575.85C776.062 577.383 776.296 579.067 776.229 580.9L776.179 582.65H754.429L753.879 579.5H773.329L772.429 580.35V579.15C772.362 577.95 772.012 576.8 771.379 575.7C770.746 574.567 769.846 573.65 768.679 572.95C767.546 572.25 766.179 571.9 764.579 571.9C762.712 571.9 761.096 572.283 759.729 573.05C758.362 573.783 757.312 574.883 756.579 576.35C755.846 577.817 755.479 579.633 755.479 581.8C755.479 583.867 755.879 585.667 756.679 587.2C757.479 588.7 758.612 589.867 760.079 590.7C761.579 591.533 763.379 591.95 765.479 591.95C766.712 591.95 767.929 591.75 769.129 591.35C770.362 590.917 771.712 590.083 773.179 588.85L775.129 591.55C774.362 592.317 773.446 593 772.379 593.6C771.312 594.167 770.146 594.633 768.879 595C767.612 595.333 766.312 595.5 764.979 595.5ZM781.555 595V568.9H785.255L785.405 574.35L784.805 574.6C785.139 573.467 785.789 572.433 786.755 571.5C787.722 570.567 788.872 569.817 790.205 569.25C791.572 568.65 792.972 568.35 794.405 568.35C796.339 568.35 797.955 568.733 799.255 569.5C800.555 570.267 801.539 571.45 802.205 573.05C802.872 574.65 803.205 576.683 803.205 579.15V595H799.405V579.35C799.405 577.617 799.172 576.2 798.705 575.1C798.272 573.967 797.589 573.133 796.655 572.6C795.722 572.067 794.572 571.817 793.205 571.85C792.072 571.85 791.022 572.05 790.055 572.45C789.089 572.817 788.255 573.333 787.555 574C786.855 574.667 786.305 575.433 785.905 576.3C785.505 577.167 785.305 578.1 785.305 579.1V595H783.455C783.222 595 782.955 595 782.655 595C782.355 595 781.989 595 781.555 595ZM813.964 595V562.05H817.714V595H813.964ZM808.064 572.5V568.9H824.314V572.5H808.064ZM840.174 595.5C837.574 595.5 835.258 594.933 833.224 593.8C831.224 592.667 829.658 591.083 828.524 589.05C827.391 587.017 826.824 584.683 826.824 582.05C826.824 580.017 827.141 578.183 827.774 576.55C828.408 574.883 829.291 573.433 830.424 572.2C831.591 570.967 832.974 570.017 834.574 569.35C836.174 568.65 837.908 568.3 839.774 568.3C841.541 568.3 843.141 568.617 844.574 569.25C846.041 569.883 847.291 570.767 848.324 571.9C849.391 573 850.191 574.317 850.724 575.85C851.258 577.383 851.491 579.067 851.424 580.9L851.374 582.65H829.624L829.074 579.5H848.524L847.624 580.35V579.15C847.558 577.95 847.208 576.8 846.574 575.7C845.941 574.567 845.041 573.65 843.874 572.95C842.741 572.25 841.374 571.9 839.774 571.9C837.908 571.9 836.291 572.283 834.924 573.05C833.558 573.783 832.508 574.883 831.774 576.35C831.041 577.817 830.674 579.633 830.674 581.8C830.674 583.867 831.074 585.667 831.874 587.2C832.674 588.7 833.808 589.867 835.274 590.7C836.774 591.533 838.574 591.95 840.674 591.95C841.908 591.95 843.124 591.75 844.324 591.35C845.558 590.917 846.908 590.083 848.374 588.85L850.324 591.55C849.558 592.317 848.641 593 847.574 593.6C846.508 594.167 845.341 594.633 844.074 595C842.808 595.333 841.508 595.5 840.174 595.5ZM867.351 595.5C864.984 595.5 862.851 594.917 860.951 593.75C859.084 592.583 857.601 590.983 856.501 588.95C855.434 586.883 854.901 584.55 854.901 581.95C854.901 579.317 855.451 576.983 856.551 574.95C857.651 572.883 859.134 571.267 861.001 570.1C862.867 568.933 864.967 568.35 867.301 568.35C868.601 568.35 869.851 568.55 871.051 568.95C872.284 569.35 873.384 569.917 874.351 570.65C875.317 571.35 876.117 572.167 876.751 573.1C877.384 574 877.767 574.95 877.901 575.95L876.751 575.55V558H880.501V595H876.801L876.701 588.5L877.651 588.15C877.517 589.083 877.134 590 876.501 590.9C875.901 591.767 875.134 592.55 874.201 593.25C873.267 593.95 872.201 594.5 871.001 594.9C869.834 595.3 868.617 595.5 867.351 595.5ZM867.901 592.05C869.634 592.05 871.184 591.617 872.551 590.75C873.917 589.883 874.984 588.683 875.751 587.15C876.551 585.617 876.951 583.867 876.951 581.9C876.951 579.933 876.551 578.2 875.751 576.7C874.984 575.167 873.917 573.967 872.551 573.1C871.184 572.2 869.634 571.75 867.901 571.75C866.101 571.75 864.517 572.2 863.151 573.1C861.817 573.967 860.751 575.167 859.951 576.7C859.184 578.2 858.801 579.933 858.801 581.9C858.801 583.833 859.184 585.567 859.951 587.1C860.717 588.633 861.784 589.85 863.151 590.75C864.517 591.617 866.101 592.05 867.901 592.05ZM909.669 595V563.8H899.669V560H923.969V563.8H913.569V595H909.669ZM935.635 595.5C933.035 595.5 930.718 594.917 928.685 593.75C926.685 592.583 925.101 590.967 923.935 588.9C922.801 586.833 922.235 584.483 922.235 581.85C922.235 579.25 922.801 576.933 923.935 574.9C925.101 572.867 926.685 571.267 928.685 570.1C930.718 568.933 933.035 568.35 935.635 568.35C938.201 568.35 940.485 568.933 942.485 570.1C944.518 571.267 946.101 572.867 947.235 574.9C948.401 576.933 948.985 579.25 948.985 581.85C948.985 584.483 948.401 586.833 947.235 588.9C946.101 590.967 944.518 592.583 942.485 593.75C940.485 594.917 938.201 595.5 935.635 595.5ZM935.635 591.95C937.468 591.95 939.101 591.517 940.535 590.65C941.968 589.75 943.085 588.55 943.885 587.05C944.685 585.517 945.085 583.783 945.085 581.85C945.085 579.917 944.685 578.2 943.885 576.7C943.085 575.2 941.968 574.033 940.535 573.2C939.101 572.333 937.468 571.9 935.635 571.9C933.801 571.9 932.151 572.333 930.685 573.2C929.251 574.033 928.118 575.217 927.285 576.75C926.485 578.25 926.101 579.95 926.135 581.85C926.101 583.783 926.485 585.517 927.285 587.05C928.118 588.55 929.251 589.75 930.685 590.65C932.151 591.517 933.801 591.95 935.635 591.95Z" fill="white"/>
<path d="M60.136 942.512V953.6H60.52C61.352 953.6 62.088 953.408 62.728 953.024C63.4 952.608 63.96 952.064 64.408 951.392C64.856 950.72 65.192 949.968 65.416 949.136C65.64 948.272 65.752 947.392 65.752 946.496C65.752 945.888 65.672 945.216 65.512 944.48C65.352 943.744 65.016 943.072 64.504 942.464C64.024 941.824 63.304 941.296 62.344 940.88C61.416 940.432 60.168 940.208 58.6 940.208C57.128 940.208 55.768 940.416 54.52 940.832C53.304 941.248 52.248 941.872 51.352 942.704C50.456 943.504 49.752 944.512 49.24 945.728C48.728 946.912 48.472 948.288 48.472 949.856C48.472 950.752 48.536 951.52 48.664 952.16C48.824 952.768 49 953.28 49.192 953.696C49.384 954.08 49.56 954.384 49.72 954.608C49.912 954.832 50.04 955.008 50.104 955.136C48.184 955.136 46.664 954.688 45.544 953.792C44.424 952.896 43.864 951.488 43.864 949.568C43.864 948 44.232 946.528 44.968 945.152C45.704 943.744 46.744 942.512 48.088 941.456C49.432 940.4 51.032 939.568 52.888 938.96C54.776 938.32 56.856 938 59.128 938C60.856 938 62.44 938.192 63.88 938.576C65.32 938.96 66.552 939.52 67.576 940.256C68.632 940.992 69.448 941.904 70.024 942.992C70.6 944.08 70.888 945.312 70.888 946.688C70.888 948.096 70.568 949.44 69.928 950.72C69.32 952 68.408 953.056 67.192 953.888C68.76 954.272 69.928 955.072 70.696 956.288C71.496 957.504 71.896 959.28 71.896 961.616C71.896 962.064 71.88 962.624 71.848 963.296C71.816 963.936 71.784 964.592 71.752 965.264C71.752 965.936 71.736 966.576 71.704 967.184C71.672 967.792 71.656 968.288 71.656 968.672C71.656 970.24 71.896 971.44 72.376 972.272C72.888 973.104 73.56 973.68 74.392 974C73.432 974.288 72.568 974.496 71.8 974.624C71.032 974.752 70.344 974.816 69.736 974.816C68.168 974.816 67.016 974.4 66.28 973.568C65.544 972.704 65.176 971.344 65.176 969.488C65.176 969.04 65.192 968.48 65.224 967.808C65.256 967.136 65.288 966.432 65.32 965.696C65.384 964.96 65.432 964.24 65.464 963.536C65.496 962.8 65.512 962.144 65.512 961.568C65.512 959.808 65.24 958.4 64.696 957.344C64.184 956.256 63.192 955.712 61.72 955.712C61.176 955.712 60.648 955.776 60.136 955.904V974H53.224V943.472L60.136 942.512ZM88.8543 959.456C88.8543 957.536 88.6463 956.176 88.2303 955.376C87.8143 954.576 87.2063 954.176 86.4062 954.176C85.9263 954.176 85.5103 954.304 85.1583 954.56C84.8383 954.816 84.5663 955.152 84.3423 955.568C84.1183 955.984 83.9423 956.464 83.8143 957.008C83.6863 957.52 83.6063 958.048 83.5743 958.592V974H76.6623V941.36L83.5743 940.4V952.496C84.3103 951.376 85.1423 950.656 86.0703 950.336C86.9983 949.984 87.8783 949.808 88.7103 949.808C89.6063 949.808 90.4543 949.952 91.2543 950.24C92.0863 950.528 92.8063 951.024 93.4143 951.728C94.0543 952.4 94.5503 953.312 94.9023 954.464C95.2543 955.584 95.4303 956.976 95.4303 958.64C95.4303 959.056 95.4143 959.584 95.3823 960.224C95.3823 960.832 95.3663 961.456 95.3343 962.096C95.3023 962.736 95.2703 963.36 95.2383 963.968C95.2383 964.576 95.2383 965.088 95.2383 965.504C95.2383 966.88 95.3983 967.92 95.7183 968.624C96.0703 969.296 96.7423 969.632 97.7343 969.632C98.2783 969.632 98.7263 969.536 99.0782 969.344C99.4303 969.12 99.7183 968.816 99.9423 968.432C100.166 968.048 100.342 967.6 100.47 967.088C100.63 966.576 100.774 966.016 100.902 965.408H102.918C102.662 967.328 102.278 968.88 101.766 970.064C101.254 971.216 100.662 972.112 99.9903 972.752C99.3503 973.36 98.6623 973.776 97.9263 974C97.1903 974.192 96.4703 974.288 95.7663 974.288C93.3023 974.288 91.5103 973.472 90.3903 971.84C89.3023 970.208 88.7583 968.032 88.7583 965.312C88.7583 965.024 88.7583 964.624 88.7583 964.112C88.7903 963.568 88.8063 963.008 88.8063 962.432C88.8063 961.856 88.8063 961.296 88.8063 960.752C88.8383 960.208 88.8543 959.776 88.8543 959.456ZM119.665 950V972.272C120.337 972.016 120.929 971.712 121.441 971.36C121.953 971.008 122.401 970.576 122.785 970.064C123.169 969.52 123.473 968.88 123.697 968.144C123.953 967.376 124.145 966.464 124.273 965.408H126.289C126.129 967.008 125.825 968.336 125.377 969.392C124.961 970.416 124.433 971.264 123.793 971.936C123.185 972.608 122.513 973.136 121.777 973.52C121.073 973.904 120.369 974.208 119.665 974.432V977.84C119.665 979.536 119.457 980.912 119.041 981.968C118.625 983.056 118.081 983.888 117.409 984.464C116.769 985.072 116.049 985.472 115.249 985.664C114.481 985.888 113.729 986 112.993 986C112.065 986 111.185 985.872 110.353 985.616C109.553 985.36 108.849 984.992 108.241 984.512C107.665 984.064 107.201 983.504 106.849 982.832C106.497 982.16 106.321 981.408 106.321 980.576C106.321 979.712 106.497 978.928 106.849 978.224C107.233 977.552 107.729 976.96 108.337 976.448C108.945 975.936 109.633 975.488 110.401 975.104C111.169 974.752 111.953 974.448 112.753 974.192V971.552C112.337 972.16 111.889 972.64 111.409 972.992C110.961 973.344 110.497 973.616 110.017 973.808C109.569 974 109.105 974.128 108.625 974.192C108.177 974.256 107.745 974.288 107.329 974.288C105.057 974.288 103.409 973.616 102.385 972.272C101.393 970.928 100.897 969.12 100.897 966.848V950H107.809V966.32C107.809 967.536 107.969 968.4 108.289 968.912C108.641 969.392 109.137 969.632 109.777 969.632C110.641 969.632 111.329 969.232 111.841 968.432C112.353 967.632 112.657 966.624 112.753 965.408V950H119.665ZM108.865 980.144C108.865 980.784 109.073 981.296 109.489 981.68C109.937 982.064 110.385 982.256 110.833 982.256C111.409 982.256 111.873 981.904 112.225 981.2C112.577 980.496 112.753 979.424 112.753 977.984V976.592C111.665 977.04 110.737 977.552 109.969 978.128C109.233 978.704 108.865 979.376 108.865 980.144ZM135.472 948.512C136.272 951.616 136.944 954.144 137.488 956.096C138.032 958.016 138.464 959.632 138.784 960.944C139.104 962.224 139.328 963.344 139.456 964.304C139.584 965.264 139.648 966.336 139.648 967.52C139.648 968.768 139.392 969.824 138.88 970.688C138.368 971.552 137.712 972.256 136.912 972.8C136.144 973.312 135.28 973.696 134.32 973.952C133.36 974.176 132.448 974.288 131.584 974.288C130.176 974.288 128.944 974.064 127.888 973.616C126.832 973.168 125.952 972.608 125.248 971.936C124.544 971.232 124.016 970.464 123.664 969.632C123.312 968.768 123.136 967.952 123.136 967.184C123.136 966.32 123.296 965.584 123.616 964.976C123.968 964.368 124.4 963.936 124.912 963.68C125.84 961.28 126.608 958.912 127.216 956.576C127.856 954.208 128.304 951.84 128.56 949.472L135.472 948.512ZM128.704 965.84C128.704 966.32 128.56 966.768 128.272 967.184C127.984 967.568 127.568 967.76 127.024 967.76C126.768 967.76 126.496 967.728 126.208 967.664C125.952 967.568 125.744 967.392 125.584 967.136C125.84 968.256 126.24 969.104 126.784 969.68C127.36 970.224 128.176 970.496 129.232 970.496C130.16 970.496 130.96 970.256 131.632 969.776C132.304 969.264 132.64 968.384 132.64 967.136C132.64 966.272 132.592 965.504 132.496 964.832C132.4 964.128 132.24 963.344 132.016 962.48C131.824 961.616 131.552 960.592 131.2 959.408C130.88 958.224 130.48 956.736 130 954.944C129.68 956.48 129.28 957.968 128.8 959.408C128.352 960.816 127.872 962.288 127.36 963.824C127.712 963.984 128.016 964.24 128.272 964.592C128.56 964.912 128.704 965.328 128.704 965.84ZM169.765 938V972.56C169.765 974.416 169.589 976.048 169.237 977.456C168.885 978.896 168.309 980.096 167.509 981.056C166.741 982.016 165.733 982.736 164.485 983.216C163.237 983.696 161.701 983.936 159.877 983.936C156.901 983.936 154.677 983.328 153.205 982.112C151.733 980.896 150.997 979.216 150.997 977.072C150.997 976.496 151.061 975.84 151.189 975.104C151.349 974.368 151.653 973.68 152.101 973.04C152.549 972.368 153.157 971.824 153.925 971.408C154.725 970.96 155.781 970.736 157.093 970.736C157.477 970.736 157.893 970.784 158.341 970.88C158.821 970.944 159.269 971.152 159.685 971.504C160.101 971.824 160.453 972.304 160.741 972.944C161.029 973.584 161.173 974.48 161.173 975.632C160.661 975.216 160.213 974.944 159.829 974.816C159.445 974.688 158.997 974.624 158.485 974.624C157.301 974.624 156.469 974.88 155.989 975.392C155.541 975.904 155.317 976.576 155.317 977.408C155.317 978.72 155.733 979.728 156.565 980.432C157.397 981.168 158.421 981.536 159.637 981.536C160.085 981.536 160.517 981.456 160.933 981.296C161.349 981.168 161.701 980.88 161.989 980.432C162.309 980.016 162.549 979.424 162.709 978.656C162.901 977.888 162.997 976.88 162.997 975.632V941.36C161.525 942.032 160.341 943.056 159.445 944.432C158.549 945.776 158.101 947.552 158.101 949.76C158.101 950.688 158.181 951.472 158.341 952.112C158.501 952.752 158.677 953.28 158.869 953.696C159.061 954.08 159.237 954.384 159.397 954.608C159.589 954.832 159.717 955.008 159.781 955.136C157.861 955.136 156.341 954.688 155.221 953.792C154.101 952.896 153.541 951.488 153.541 949.568C153.541 947.936 153.941 946.416 154.741 945.008C155.541 943.6 156.597 942.384 157.909 941.36C159.253 940.304 160.789 939.488 162.517 938.912C164.245 938.304 166.021 938 167.845 938H169.765ZM204.017 948.512C204.817 951.584 205.521 954.096 206.129 956.048C206.737 957.968 207.249 959.584 207.665 960.896C208.113 962.208 208.449 963.36 208.673 964.352C208.929 965.344 209.057 966.448 209.057 967.664C209.601 967.312 210.129 966.944 210.641 966.56C211.153 966.144 211.585 965.76 211.937 965.408H213.953C213.089 966.72 212.177 967.808 211.217 968.672C210.257 969.504 209.329 970.24 208.433 970.88C207.857 972.128 206.977 973.008 205.793 973.52C204.609 974.032 203.377 974.288 202.097 974.288C200.657 974.288 199.425 974.096 198.401 973.712C197.377 973.296 196.529 972.752 195.857 972.08C195.217 971.376 194.737 970.576 194.417 969.68C194.097 968.784 193.937 967.84 193.937 966.848C193.937 965.76 194.193 964.912 194.705 964.304C195.249 963.664 195.873 963.344 196.577 963.344C198.529 963.344 199.505 964.128 199.505 965.696C199.505 966.208 199.329 966.64 198.977 966.992C198.625 967.344 198.177 967.52 197.633 967.52C197.377 967.52 197.105 967.488 196.817 967.424C196.561 967.328 196.353 967.152 196.193 966.896C196.449 968.016 196.865 968.896 197.441 969.536C198.049 970.176 198.817 970.496 199.745 970.496C200.545 970.496 201.137 970.304 201.521 969.92C201.905 969.504 202.097 968.8 202.097 967.808C202.097 966.752 202.001 965.808 201.809 964.976C201.649 964.112 201.393 963.168 201.041 962.144C200.689 961.12 200.257 959.904 199.745 958.496C199.233 957.056 198.657 955.2 198.017 952.928C196.417 956.352 194.305 958.544 191.681 959.504C191.681 959.76 191.681 960.016 191.681 960.272C191.713 960.496 191.729 960.736 191.729 960.992C191.729 962.848 191.569 964.592 191.249 966.224C190.929 967.824 190.385 969.232 189.617 970.448C188.881 971.632 187.921 972.576 186.737 973.28C185.553 973.952 184.097 974.288 182.369 974.288C181.185 974.288 180.049 974.112 178.961 973.76C177.905 973.376 176.961 972.768 176.129 971.936C175.297 971.072 174.625 969.952 174.113 968.576C173.633 967.168 173.393 965.456 173.393 963.44C173.393 962.064 173.537 960.592 173.825 959.024C174.113 957.424 174.641 955.936 175.409 954.56C176.177 953.184 177.217 952.048 178.529 951.152C179.873 950.224 181.585 949.76 183.665 949.76C185.809 949.76 187.521 950.336 188.801 951.488C190.113 952.64 190.993 954.496 191.441 957.056C192.561 956.8 193.569 956.032 194.465 954.752C195.393 953.44 196.273 951.68 197.105 949.472L204.017 948.512ZM183.713 969.776C184.385 969.776 184.961 969.552 185.441 969.104C185.953 968.624 186.369 967.984 186.689 967.184C187.009 966.352 187.233 965.376 187.361 964.256C187.521 963.136 187.601 961.92 187.601 960.608V959.984C186.321 959.696 185.681 958.752 185.681 957.152C185.681 956.128 186.097 955.456 186.929 955.136C186.577 954.112 186.145 953.44 185.633 953.12C185.153 952.8 184.737 952.64 184.385 952.64C183.681 952.64 183.073 952.976 182.561 953.648C182.081 954.288 181.681 955.12 181.361 956.144C181.041 957.136 180.801 958.24 180.641 959.456C180.513 960.672 180.449 961.84 180.449 962.96C180.449 964.4 180.545 965.568 180.737 966.464C180.961 967.36 181.233 968.048 181.553 968.528C181.873 969.008 182.225 969.344 182.609 969.536C182.993 969.696 183.361 969.776 183.713 969.776ZM235.477 959.504C235.477 957.584 235.253 956.224 234.805 955.424C234.357 954.592 233.749 954.176 232.981 954.176C232.053 954.176 231.365 954.624 230.917 955.52C230.501 956.384 230.245 957.408 230.149 958.592V974H223.237V957.44C223.237 957.056 223.205 956.672 223.141 956.288C223.077 955.872 222.965 955.52 222.805 955.232C222.645 954.912 222.421 954.656 222.133 954.464C221.877 954.24 221.541 954.128 221.125 954.128C220.261 954.128 219.589 954.576 219.109 955.472C218.661 956.336 218.389 957.376 218.293 958.592V974H211.381V950H218.293V952.496C219.061 951.344 219.909 950.608 220.837 950.288C221.797 949.936 222.693 949.76 223.525 949.76C224.709 949.76 225.813 950.048 226.837 950.624C227.861 951.2 228.693 952.288 229.333 953.888C229.717 953.024 230.149 952.32 230.629 951.776C231.141 951.232 231.653 950.816 232.165 950.528C232.709 950.24 233.237 950.048 233.749 949.952C234.293 949.856 234.805 949.808 235.285 949.808C236.181 949.808 237.029 949.952 237.829 950.24C238.661 950.528 239.381 951.024 239.989 951.728C240.629 952.4 241.125 953.312 241.477 954.464C241.829 955.584 242.005 956.976 242.005 958.64C242.005 959.056 241.989 959.584 241.957 960.224C241.957 960.832 241.941 961.456 241.909 962.096C241.877 962.736 241.845 963.36 241.813 963.968C241.813 964.576 241.813 965.088 241.813 965.504C241.813 966.88 241.973 967.92 242.293 968.624C242.645 969.296 243.317 969.632 244.309 969.632C244.853 969.632 245.301 969.536 245.653 969.344C246.005 969.12 246.293 968.816 246.517 968.432C246.741 968.048 246.917 967.6 247.045 967.088C247.205 966.576 247.349 966.016 247.477 965.408H249.493C249.237 967.296 248.853 968.832 248.341 970.016C247.829 971.168 247.253 972.064 246.613 972.704C245.973 973.344 245.269 973.776 244.501 974C243.765 974.192 243.029 974.288 242.293 974.288C239.893 974.288 238.133 973.472 237.013 971.84C235.925 970.208 235.381 968.032 235.381 965.312C235.381 965.024 235.381 964.624 235.381 964.112C235.413 963.568 235.429 963.008 235.429 962.432C235.429 961.856 235.429 961.296 235.429 960.752C235.461 960.208 235.477 959.792 235.477 959.504ZM254.387 950V966.32C254.387 967.664 254.563 968.56 254.915 969.008C255.299 969.424 255.955 969.632 256.883 969.632C257.811 969.632 258.579 969.232 259.187 968.432C259.827 967.632 260.195 966.624 260.291 965.408H262.307C262.051 967.36 261.603 968.928 260.963 970.112C260.323 971.264 259.603 972.16 258.803 972.8C258.003 973.408 257.187 973.808 256.355 974C255.523 974.192 254.787 974.288 254.147 974.288C251.683 974.288 249.955 973.616 248.963 972.272C247.971 970.896 247.475 969.088 247.475 966.848V950H254.387ZM246.947 943.616C246.947 942.56 247.315 941.664 248.051 940.928C248.787 940.16 249.683 939.776 250.739 939.776C251.795 939.776 252.691 940.16 253.427 940.928C254.195 941.664 254.579 942.56 254.579 943.616C254.579 944.672 254.195 945.568 253.427 946.304C252.691 947.04 251.795 947.408 250.739 947.408C249.683 947.408 248.787 947.04 248.051 946.304C247.315 945.568 246.947 944.672 246.947 943.616ZM272.512 959.408C272.512 957.52 272.288 956.176 271.84 955.376C271.424 954.576 270.8 954.176 269.968 954.176C269.104 954.176 268.448 954.608 268 955.472C267.552 956.336 267.28 957.376 267.184 958.592V974H260.272V950H267.184V952.496C267.952 951.344 268.8 950.608 269.728 950.288C270.656 949.968 271.488 949.808 272.224 949.808C273.152 949.808 274.032 949.952 274.864 950.24C275.696 950.528 276.416 951.008 277.024 951.68C277.664 952.352 278.16 953.248 278.512 954.368C278.864 955.456 279.04 956.816 279.04 958.448C279.04 958.992 279.024 959.584 278.992 960.224C278.992 960.832 278.976 961.456 278.944 962.096C278.912 962.736 278.88 963.36 278.848 963.968C278.848 964.576 278.848 965.104 278.848 965.552C278.848 966.896 279.008 967.92 279.328 968.624C279.68 969.296 280.368 969.632 281.392 969.632C282.16 969.632 282.672 969.536 282.928 969.344C282.928 971.072 282.56 972.336 281.824 973.136C281.12 973.904 280.08 974.288 278.704 974.288C277.52 974.288 276.528 974.064 275.728 973.616C274.928 973.136 274.272 972.496 273.76 971.696C273.28 970.896 272.928 969.968 272.704 968.912C272.512 967.856 272.416 966.736 272.416 965.552C272.416 965.136 272.416 964.656 272.416 964.112C272.448 963.536 272.464 962.976 272.464 962.432C272.464 961.856 272.464 961.312 272.464 960.8C272.496 960.256 272.512 959.792 272.512 959.408Z" fill="#0047FF"/>
<path d="M52.781 1013V994.1H59.909C61.205 994.1 62.384 994.334 63.446 994.802C64.526 995.252 65.462 995.9 66.254 996.746C67.046 997.592 67.658 998.591 68.09 999.743C68.522 1000.89 68.738 1002.16 68.738 1003.55C68.738 1004.94 68.522 1006.21 68.09 1007.38C67.658 1008.54 67.046 1009.53 66.254 1010.38C65.48 1011.21 64.553 1011.86 63.473 1012.32C62.393 1012.77 61.205 1013 59.909 1013H52.781ZM54.887 1011.33L54.644 1010.95H59.774C60.764 1010.95 61.673 1010.78 62.501 1010.43C63.347 1010.07 64.067 1009.57 64.661 1008.92C65.273 1008.26 65.741 1007.47 66.065 1006.57C66.407 1005.67 66.578 1004.67 66.578 1003.55C66.578 1002.43 66.407 1001.43 66.065 1000.53C65.741 999.626 65.273 998.852 64.661 998.204C64.049 997.538 63.329 997.034 62.501 996.692C61.673 996.332 60.764 996.152 59.774 996.152H54.563L54.887 995.828V1011.33ZM77.1664 1013.27C75.7624 1013.27 74.5114 1012.96 73.4134 1012.35C72.3334 1011.74 71.4874 1010.88 70.8754 1009.79C70.2634 1008.69 69.9574 1007.43 69.9574 1006.01C69.9574 1004.91 70.1284 1003.92 70.4704 1003.04C70.8124 1002.14 71.2894 1001.35 71.9014 1000.69C72.5314 1000.02 73.2784 999.509 74.1424 999.149C75.0064 998.771 75.9424 998.582 76.9504 998.582C77.9044 998.582 78.7684 998.753 79.5424 999.095C80.3344 999.437 81.0094 999.914 81.5674 1000.53C82.1434 1001.12 82.5754 1001.83 82.8634 1002.66C83.1514 1003.49 83.2774 1004.4 83.2414 1005.39L83.2144 1006.33H71.4694L71.1724 1004.63H81.6754L81.1894 1005.09V1004.44C81.1534 1003.79 80.9644 1003.17 80.6224 1002.58C80.2804 1001.97 79.7944 1001.47 79.1644 1001.09C78.5524 1000.71 77.8144 1000.53 76.9504 1000.53C75.9424 1000.53 75.0694 1000.73 74.3314 1001.15C73.5934 1001.54 73.0264 1002.14 72.6304 1002.93C72.2344 1003.72 72.0364 1004.7 72.0364 1005.87C72.0364 1006.99 72.2524 1007.96 72.6844 1008.79C73.1164 1009.6 73.7284 1010.23 74.5204 1010.68C75.3304 1011.13 76.3024 1011.35 77.4364 1011.35C78.1024 1011.35 78.7594 1011.24 79.4074 1011.03C80.0734 1010.79 80.8024 1010.34 81.5944 1009.68L82.6474 1011.14C82.2334 1011.55 81.7384 1011.92 81.1624 1012.24C80.5864 1012.55 79.9564 1012.8 79.2724 1013C78.5884 1013.18 77.8864 1013.27 77.1664 1013.27ZM89.1479 1013L83.2079 998.906H85.4489L90.1469 1010.43L89.6069 1010.73L94.7639 998.906H96.9239L90.6059 1013H89.1479ZM104.037 1013.27C102.633 1013.27 101.382 1012.96 100.284 1012.35C99.2037 1011.74 98.3577 1010.88 97.7457 1009.79C97.1337 1008.69 96.8277 1007.43 96.8277 1006.01C96.8277 1004.91 96.9987 1003.92 97.3407 1003.04C97.6827 1002.14 98.1597 1001.35 98.7717 1000.69C99.4017 1000.02 100.149 999.509 101.013 999.149C101.877 998.771 102.813 998.582 103.821 998.582C104.775 998.582 105.639 998.753 106.413 999.095C107.205 999.437 107.88 999.914 108.438 1000.53C109.014 1001.12 109.446 1001.83 109.734 1002.66C110.022 1003.49 110.148 1004.4 110.112 1005.39L110.085 1006.33H98.3397L98.0427 1004.63H108.546L108.06 1005.09V1004.44C108.024 1003.79 107.835 1003.17 107.493 1002.58C107.151 1001.97 106.665 1001.47 106.035 1001.09C105.423 1000.71 104.685 1000.53 103.821 1000.53C102.813 1000.53 101.94 1000.73 101.202 1001.15C100.464 1001.54 99.8967 1002.14 99.5007 1002.93C99.1047 1003.72 98.9067 1004.7 98.9067 1005.87C98.9067 1006.99 99.1227 1007.96 99.5547 1008.79C99.9867 1009.6 100.599 1010.23 101.391 1010.68C102.201 1011.13 103.173 1011.35 104.307 1011.35C104.973 1011.35 105.63 1011.24 106.278 1011.03C106.944 1010.79 107.673 1010.34 108.465 1009.68L109.518 1011.14C109.104 1011.55 108.609 1011.92 108.033 1012.24C107.457 1012.55 106.827 1012.8 106.143 1013C105.459 1013.18 104.757 1013.27 104.037 1013.27ZM111.962 1013V993.02H113.987V1013H111.962ZM122.866 1013.27C121.462 1013.27 120.211 1012.96 119.113 1012.32C118.033 1011.69 117.178 1010.82 116.548 1009.71C115.936 1008.59 115.63 1007.32 115.63 1005.9C115.63 1004.49 115.936 1003.24 116.548 1002.15C117.178 1001.05 118.033 1000.18 119.113 999.554C120.211 998.924 121.462 998.609 122.866 998.609C124.252 998.609 125.485 998.924 126.565 999.554C127.663 1000.18 128.518 1001.05 129.13 1002.15C129.76 1003.24 130.075 1004.49 130.075 1005.9C130.075 1007.32 129.76 1008.59 129.13 1009.71C128.518 1010.82 127.663 1011.69 126.565 1012.32C125.485 1012.96 124.252 1013.27 122.866 1013.27ZM122.866 1011.35C123.856 1011.35 124.738 1011.12 125.512 1010.65C126.286 1010.16 126.889 1009.52 127.321 1008.71C127.753 1007.88 127.969 1006.94 127.969 1005.9C127.969 1004.85 127.753 1003.93 127.321 1003.12C126.889 1002.31 126.286 1001.68 125.512 1001.23C124.738 1000.76 123.856 1000.53 122.866 1000.53C121.876 1000.53 120.985 1000.76 120.193 1001.23C119.419 1001.68 118.807 1002.32 118.357 1003.14C117.925 1003.95 117.718 1004.87 117.736 1005.9C117.718 1006.94 117.925 1007.88 118.357 1008.71C118.807 1009.52 119.419 1010.16 120.193 1010.65C120.985 1011.12 121.876 1011.35 122.866 1011.35ZM131.949 1018.94V998.906H133.974L134.028 1002.33L133.65 1002.39C133.812 1001.7 134.163 1001.08 134.703 1000.53C135.243 999.95 135.9 999.491 136.674 999.149C137.448 998.807 138.267 998.636 139.131 998.636C140.391 998.636 141.516 998.951 142.506 999.581C143.514 1000.21 144.315 1001.07 144.909 1002.17C145.503 1003.27 145.8 1004.53 145.8 1005.95C145.8 1007.36 145.512 1008.61 144.936 1009.71C144.36 1010.8 143.568 1011.68 142.56 1012.32C141.552 1012.96 140.418 1013.27 139.158 1013.27C138.276 1013.27 137.439 1013.09 136.647 1012.73C135.855 1012.37 135.18 1011.9 134.622 1011.33C134.064 1010.73 133.695 1010.09 133.515 1009.41H134.001V1018.94H131.949ZM138.834 1011.33C139.788 1011.33 140.634 1011.09 141.372 1010.62C142.11 1010.16 142.695 1009.52 143.127 1008.71C143.559 1007.9 143.775 1006.98 143.775 1005.95C143.775 1004.91 143.559 1003.98 143.127 1003.17C142.695 1002.36 142.11 1001.72 141.372 1001.25C140.634 1000.79 139.788 1000.55 138.834 1000.55C137.88 1000.55 137.025 1000.79 136.269 1001.25C135.531 1001.7 134.946 1002.33 134.514 1003.14C134.082 1003.95 133.866 1004.88 133.866 1005.93C133.866 1006.97 134.082 1007.9 134.514 1008.71C134.946 1009.52 135.531 1010.16 136.269 1010.62C137.025 1011.09 137.88 1011.33 138.834 1011.33ZM153.875 1013.27C152.471 1013.27 151.22 1012.96 150.122 1012.35C149.042 1011.74 148.196 1010.88 147.584 1009.79C146.972 1008.69 146.666 1007.43 146.666 1006.01C146.666 1004.91 146.837 1003.92 147.179 1003.04C147.521 1002.14 147.998 1001.35 148.61 1000.69C149.24 1000.02 149.987 999.509 150.851 999.149C151.715 998.771 152.651 998.582 153.659 998.582C154.613 998.582 155.477 998.753 156.251 999.095C157.043 999.437 157.718 999.914 158.276 1000.53C158.852 1001.12 159.284 1001.83 159.572 1002.66C159.86 1003.49 159.986 1004.4 159.95 1005.39L159.923 1006.33H148.178L147.881 1004.63H158.384L157.898 1005.09V1004.44C157.862 1003.79 157.673 1003.17 157.331 1002.58C156.989 1001.97 156.503 1001.47 155.873 1001.09C155.261 1000.71 154.523 1000.53 153.659 1000.53C152.651 1000.53 151.778 1000.73 151.04 1001.15C150.302 1001.54 149.735 1002.14 149.339 1002.93C148.943 1003.72 148.745 1004.7 148.745 1005.87C148.745 1006.99 148.961 1007.96 149.393 1008.79C149.825 1009.6 150.437 1010.23 151.229 1010.68C152.039 1011.13 153.011 1011.35 154.145 1011.35C154.811 1011.35 155.468 1011.24 156.116 1011.03C156.782 1010.79 157.511 1010.34 158.303 1009.68L159.356 1011.14C158.942 1011.55 158.447 1011.92 157.871 1012.24C157.295 1012.55 156.665 1012.8 155.981 1013C155.297 1013.18 154.595 1013.27 153.875 1013.27ZM161.746 1013V998.906H163.771L163.825 1002.66L163.609 1002.15C163.807 1001.52 164.122 1000.93 164.554 1000.39C165.004 999.851 165.535 999.419 166.147 999.095C166.759 998.771 167.434 998.609 168.172 998.609C168.478 998.609 168.766 998.636 169.036 998.69C169.306 998.726 169.531 998.78 169.711 998.852L169.144 1001.12C168.91 1001.01 168.667 1000.94 168.415 1000.9C168.181 1000.85 167.956 1000.82 167.74 1000.82C167.128 1000.82 166.579 1000.93 166.093 1001.15C165.607 1001.36 165.193 1001.67 164.851 1002.06C164.509 1002.44 164.248 1002.88 164.068 1003.39C163.888 1003.89 163.798 1004.43 163.798 1005.01V1013H161.746ZM169.11 1017.46L168.354 1016.48C168.93 1016.14 169.38 1015.77 169.704 1015.38C170.028 1014.98 170.19 1014.6 170.19 1014.24C170.19 1014.04 170.154 1013.86 170.082 1013.68C170.01 1013.5 169.83 1013.27 169.542 1013C169.29 1012.77 169.101 1012.54 168.975 1012.32C168.867 1012.11 168.813 1011.88 168.813 1011.65C168.813 1011.29 168.939 1011 169.191 1010.79C169.443 1010.55 169.776 1010.43 170.19 1010.43C170.604 1010.43 170.964 1010.54 171.27 1010.76C171.576 1010.97 171.81 1011.28 171.972 1011.68C172.152 1012.05 172.242 1012.5 172.242 1013.03C172.242 1013.51 172.17 1013.96 172.026 1014.38C171.882 1014.81 171.675 1015.21 171.405 1015.59C171.135 1015.97 170.811 1016.31 170.433 1016.62C170.055 1016.92 169.614 1017.2 169.11 1017.46ZM52.781 1047V1028.1H60.449C61.547 1028.1 62.492 1028.3 63.284 1028.69C64.094 1029.07 64.715 1029.62 65.147 1030.34C65.579 1031.04 65.795 1031.88 65.795 1032.85C65.795 1033.9 65.498 1034.8 64.904 1035.55C64.31 1036.29 63.5 1036.8 62.474 1037.09L62.42 1036.58C63.302 1036.74 64.067 1037.05 64.715 1037.52C65.363 1037.97 65.867 1038.53 66.227 1039.2C66.605 1039.86 66.794 1040.61 66.794 1041.44C66.794 1042.28 66.65 1043.05 66.362 1043.73C66.074 1044.42 65.66 1045 65.12 1045.49C64.598 1045.97 63.959 1046.35 63.203 1046.62C62.465 1046.87 61.637 1047 60.719 1047H52.781ZM54.887 1044.95H60.557C61.367 1044.95 62.069 1044.81 62.663 1044.54C63.275 1044.25 63.743 1043.85 64.067 1043.33C64.409 1042.81 64.58 1042.2 64.58 1041.52C64.58 1040.87 64.4 1040.3 64.04 1039.82C63.698 1039.33 63.212 1038.95 62.582 1038.68C61.97 1038.41 61.25 1038.28 60.422 1038.28H54.887V1044.95ZM54.887 1036.23H60.287C60.935 1036.23 61.511 1036.1 62.015 1035.85C62.519 1035.58 62.915 1035.22 63.203 1034.77C63.491 1034.3 63.635 1033.78 63.635 1033.2C63.635 1032.28 63.32 1031.55 62.69 1030.99C62.078 1030.43 61.214 1030.15 60.098 1030.15H54.887V1036.23ZM68.9802 1047V1027.02H71.0052V1047H68.9802ZM79.8839 1047.27C78.4799 1047.27 77.2289 1046.96 76.1309 1046.32C75.0509 1045.69 74.1959 1044.82 73.5659 1043.71C72.9539 1042.59 72.6479 1041.32 72.6479 1039.9C72.6479 1038.49 72.9539 1037.24 73.5659 1036.15C74.1959 1035.05 75.0509 1034.18 76.1309 1033.55C77.2289 1032.92 78.4799 1032.61 79.8839 1032.61C81.2699 1032.61 82.5029 1032.92 83.5829 1033.55C84.6809 1034.18 85.5359 1035.05 86.1479 1036.15C86.7779 1037.24 87.0929 1038.49 87.0929 1039.9C87.0929 1041.32 86.7779 1042.59 86.1479 1043.71C85.5359 1044.82 84.6809 1045.69 83.5829 1046.32C82.5029 1046.96 81.2699 1047.27 79.8839 1047.27ZM79.8839 1045.35C80.8739 1045.35 81.7559 1045.12 82.5299 1044.65C83.3039 1044.16 83.9069 1043.52 84.3389 1042.71C84.7709 1041.88 84.9869 1040.94 84.9869 1039.9C84.9869 1038.85 84.7709 1037.93 84.3389 1037.12C83.9069 1036.31 83.3039 1035.68 82.5299 1035.23C81.7559 1034.76 80.8739 1034.53 79.8839 1034.53C78.8939 1034.53 78.0029 1034.76 77.2109 1035.23C76.4369 1035.68 75.8249 1036.32 75.3749 1037.14C74.9429 1037.95 74.7359 1038.87 74.7539 1039.9C74.7359 1040.94 74.9429 1041.88 75.3749 1042.71C75.8249 1043.52 76.4369 1044.16 77.2109 1044.65C78.0029 1045.12 78.8939 1045.35 79.8839 1045.35ZM95.0423 1053.21C93.9983 1053.21 93.0083 1053.05 92.0723 1052.72C91.1363 1052.4 90.3623 1052 89.7503 1051.51L90.5603 1049.81C90.9203 1050.1 91.3343 1050.35 91.8023 1050.56C92.2883 1050.8 92.8103 1050.98 93.3683 1051.1C93.9263 1051.25 94.4933 1051.32 95.0693 1051.32C96.1133 1051.32 96.9953 1051.12 97.7153 1050.73C98.4533 1050.35 99.0113 1049.78 99.3893 1049.03C99.7853 1048.27 99.9833 1047.33 99.9833 1046.22V1043.52L100.307 1043.44C100.145 1044.12 99.7943 1044.76 99.2543 1045.35C98.7143 1045.93 98.0573 1046.4 97.2833 1046.76C96.5093 1047.1 95.6903 1047.27 94.8263 1047.27C93.5123 1047.27 92.3333 1046.96 91.2893 1046.32C90.2633 1045.69 89.4533 1044.83 88.8593 1043.73C88.2653 1042.62 87.9683 1041.36 87.9683 1039.95C87.9683 1038.53 88.2653 1037.27 88.8593 1036.17C89.4713 1035.06 90.2903 1034.18 91.3163 1033.55C92.3423 1032.92 93.4943 1032.61 94.7723 1032.61C95.3303 1032.61 95.8703 1032.68 96.3923 1032.82C96.9143 1032.95 97.3913 1033.14 97.8233 1033.39C98.2733 1033.64 98.6783 1033.93 99.0383 1034.26C99.3983 1034.58 99.6953 1034.93 99.9293 1035.31C100.181 1035.69 100.361 1036.07 100.469 1036.47L99.9023 1036.39L99.9833 1032.91H102.008V1046.14C102.008 1047.27 101.846 1048.27 101.522 1049.13C101.198 1050.02 100.721 1050.75 100.091 1051.35C99.4793 1051.96 98.7413 1052.42 97.8773 1052.72C97.0313 1053.05 96.0863 1053.21 95.0423 1053.21ZM95.0693 1045.33C96.0233 1045.33 96.8693 1045.1 97.6073 1044.65C98.3633 1044.18 98.9573 1043.54 99.3893 1042.73C99.8213 1041.92 100.037 1040.99 100.037 1039.93C100.037 1038.88 99.8213 1037.95 99.3893 1037.14C98.9753 1036.33 98.3903 1035.7 97.6343 1035.23C96.8783 1034.76 96.0233 1034.53 95.0693 1034.53C94.0973 1034.53 93.2333 1034.76 92.4773 1035.23C91.7393 1035.7 91.1543 1036.33 90.7223 1037.14C90.2903 1037.95 90.0743 1038.88 90.0743 1039.93C90.0743 1040.95 90.2813 1041.88 90.6953 1042.71C91.1273 1043.52 91.7123 1044.16 92.4503 1044.62C93.2063 1045.09 94.0793 1045.33 95.0693 1045.33ZM110.059 1047L117.295 1028.1H119.698L126.88 1047H124.585L119.968 1034.74C119.842 1034.4 119.698 1034 119.536 1033.55C119.392 1033.09 119.23 1032.61 119.05 1032.12C118.888 1031.62 118.726 1031.13 118.564 1030.66C118.42 1030.2 118.285 1029.78 118.159 1029.42H118.699C118.555 1029.87 118.402 1030.33 118.24 1030.8C118.096 1031.25 117.943 1031.71 117.781 1032.18C117.619 1032.63 117.457 1033.08 117.295 1033.53C117.133 1033.98 116.971 1034.43 116.809 1034.88L112.219 1047H110.059ZM113.137 1041.79L113.92 1039.74H122.857L123.721 1041.79H113.137ZM133.173 1047.27C132.093 1047.27 131.175 1047.05 130.419 1046.62C129.681 1046.17 129.114 1045.52 128.718 1044.68C128.34 1043.83 128.151 1042.78 128.151 1041.52V1032.91H130.203V1041.11C130.203 1042.07 130.329 1042.87 130.581 1043.52C130.851 1044.15 131.247 1044.62 131.769 1044.95C132.309 1045.27 132.966 1045.43 133.74 1045.43C134.334 1045.43 134.883 1045.33 135.387 1045.14C135.891 1044.92 136.332 1044.63 136.71 1044.27C137.088 1043.91 137.385 1043.49 137.601 1043C137.817 1042.52 137.925 1042 137.925 1041.46V1032.91H139.95V1047H137.952L137.871 1044.03L138.195 1043.87C137.979 1044.5 137.619 1045.07 137.115 1045.6C136.611 1046.1 136.008 1046.5 135.306 1046.81C134.622 1047.12 133.911 1047.27 133.173 1047.27ZM144.757 1047V1029.21H146.782V1047H144.757ZM141.571 1034.85V1032.91H150.346V1034.85H141.571ZM151.753 1047V1027.02H153.778V1035.98L153.373 1036.39C153.571 1035.65 153.94 1035 154.48 1034.44C155.02 1033.87 155.65 1033.42 156.37 1033.09C157.108 1032.77 157.855 1032.61 158.611 1032.61C159.691 1032.61 160.591 1032.82 161.311 1033.23C162.031 1033.64 162.562 1034.28 162.904 1035.15C163.264 1036.01 163.444 1037.11 163.444 1038.44V1047H161.392V1038.55C161.392 1037.61 161.266 1036.85 161.014 1036.25C160.78 1035.64 160.411 1035.19 159.907 1034.9C159.403 1034.62 158.773 1034.48 158.017 1034.5C157.423 1034.5 156.865 1034.61 156.343 1034.82C155.821 1035.02 155.371 1035.3 154.993 1035.66C154.615 1036.02 154.318 1036.43 154.102 1036.9C153.886 1037.37 153.778 1037.87 153.778 1038.41V1047H152.779C152.653 1047 152.509 1047 152.347 1047C152.185 1047 151.987 1047 151.753 1047ZM172.467 1047.27C171.063 1047.27 169.812 1046.96 168.714 1046.32C167.634 1045.69 166.779 1044.82 166.149 1043.71C165.537 1042.59 165.231 1041.32 165.231 1039.9C165.231 1038.49 165.537 1037.24 166.149 1036.15C166.779 1035.05 167.634 1034.18 168.714 1033.55C169.812 1032.92 171.063 1032.61 172.467 1032.61C173.853 1032.61 175.086 1032.92 176.166 1033.55C177.264 1034.18 178.119 1035.05 178.731 1036.15C179.361 1037.24 179.676 1038.49 179.676 1039.9C179.676 1041.32 179.361 1042.59 178.731 1043.71C178.119 1044.82 177.264 1045.69 176.166 1046.32C175.086 1046.96 173.853 1047.27 172.467 1047.27ZM172.467 1045.35C173.457 1045.35 174.339 1045.12 175.113 1044.65C175.887 1044.16 176.49 1043.52 176.922 1042.71C177.354 1041.88 177.57 1040.94 177.57 1039.9C177.57 1038.85 177.354 1037.93 176.922 1037.12C176.49 1036.31 175.887 1035.68 175.113 1035.23C174.339 1034.76 173.457 1034.53 172.467 1034.53C171.477 1034.53 170.586 1034.76 169.794 1035.23C169.02 1035.68 168.408 1036.32 167.958 1037.14C167.526 1037.95 167.319 1038.87 167.337 1039.9C167.319 1040.94 167.526 1041.88 167.958 1042.71C168.408 1043.52 169.02 1044.16 169.794 1044.65C170.586 1045.12 171.477 1045.35 172.467 1045.35ZM181.55 1047V1032.91H183.575L183.629 1036.66L183.413 1036.15C183.611 1035.52 183.926 1034.93 184.358 1034.39C184.808 1033.85 185.339 1033.42 185.951 1033.09C186.563 1032.77 187.238 1032.61 187.976 1032.61C188.282 1032.61 188.57 1032.64 188.84 1032.69C189.11 1032.73 189.335 1032.78 189.515 1032.85L188.948 1035.12C188.714 1035.01 188.471 1034.94 188.219 1034.9C187.985 1034.85 187.76 1034.82 187.544 1034.82C186.932 1034.82 186.383 1034.93 185.897 1035.15C185.411 1035.36 184.997 1035.67 184.655 1036.06C184.313 1036.44 184.052 1036.88 183.872 1037.39C183.692 1037.89 183.602 1038.43 183.602 1039.01V1047H181.55Z" fill="white"/>
</svg>
