<?xml version="1.0" encoding="UTF-8" standalone="no"?><!DOCTYPE svg PUBLIC "-//W3C//DTD SVG 1.1//EN" "http://www.w3.org/Graphics/SVG/1.1/DTD/svg11.dtd"><svg width="100%" height="100%" viewBox="0 0 912 841" version="1.1" xmlns="http://www.w3.org/2000/svg" xmlns:xlink="http://www.w3.org/1999/xlink" xml:space="preserve" xmlns:serif="http://www.serif.com/" style="fill-rule:evenodd;clip-rule:evenodd;stroke-linejoin:round;stroke-miterlimit:2;"><path d="M72.246,421.313c-96.328,-96.327 -96.328,-252.739 -0,-349.067c96.328,-96.328 252.74,-96.328 349.067,-0c13.303,13.303 24.769,27.752 34.401,43.037c9.632,-15.285 21.098,-29.734 34.401,-43.037c96.327,-96.328 252.739,-96.328 349.067,-0c96.328,96.328 96.328,252.74 0,349.067c0,0 -244.904,267.542 -343.277,375.009c-10.322,11.275 -24.905,17.697 -40.191,17.697c-15.286,-0 -29.869,-6.422 -40.191,-17.697c-98.373,-107.467 -343.277,-375.009 -343.277,-375.009Z" style="fill:#e6174b;"/></svg>