<?xml version="1.0" encoding="UTF-8" standalone="no"?><!DOCTYPE svg PUBLIC "-//W3C//DTD SVG 1.1//EN" "http://www.w3.org/Graphics/SVG/1.1/DTD/svg11.dtd"><svg width="100%" height="100%" viewBox="0 0 973 902" version="1.1" xmlns="http://www.w3.org/2000/svg" xmlns:xlink="http://www.w3.org/1999/xlink" xml:space="preserve" xmlns:serif="http://www.serif.com/" style="fill-rule:evenodd;clip-rule:evenodd;stroke-linecap:round;stroke-linejoin:round;stroke-miterlimit:1.5;"><path d="M102.856,451.924c-96.327,-96.328 -96.327,-252.74 0,-349.068c96.328,-96.327 252.74,-96.327 349.068,0c13.303,13.303 24.769,27.752 34.401,43.038c9.632,-15.286 21.097,-29.735 34.4,-43.038c96.328,-96.327 252.74,-96.327 349.068,0c96.328,96.328 96.328,252.74 -0,349.068c-0,0 -244.904,267.542 -343.278,375.008c-10.321,11.276 -24.904,17.697 -40.19,17.697c-15.287,0 -29.87,-6.421 -40.191,-17.697c-98.374,-107.466 -343.278,-375.008 -343.278,-375.008Z" style="fill:none;stroke:#000;stroke-width:61.22px;"/></svg>