<?xml version="1.0" encoding="UTF-8" standalone="no"?><!DOCTYPE svg PUBLIC "-//W3C//DTD SVG 1.1//EN" "http://www.w3.org/Graphics/SVG/1.1/DTD/svg11.dtd"><svg width="100%" height="100%" viewBox="0 0 2250 2250" version="1.1" xmlns="http://www.w3.org/2000/svg" xmlns:xlink="http://www.w3.org/1999/xlink" xml:space="preserve" xmlns:serif="http://www.serif.com/" style="fill-rule:evenodd;clip-rule:evenodd;stroke-linejoin:round;stroke-miterlimit:2;"><rect id="Artboard4" x="0" y="0" width="2250" height="2250" style="fill:#fff;"/><g><path d="M2091.73,185.005l-1933.45,-0l-0,1112.58l221.723,-0l0,-215.588l167.746,0c100.802,0 193.959,53.741 244.422,141.002c0,0.001 0,0.001 0,0.001c52.697,91.125 80.444,194.531 80.444,299.796c-0,0 -0,0 -0,0l221.723,0c-1.974,-147.664 -41.835,-292.348 -115.765,-420.188l-35.434,-61.274c154.645,-70.846 262.061,-226.817 262.061,-407.835c0,0 0,0 0,-0c0,-82.88 -22.518,-160.509 -61.787,-227.137l505.234,0l0,1116.43l-221.723,0l-0,-221.362l-221.724,0c0,0 0,110.441 0,221.001c0,122.454 99.269,221.723 221.723,221.723l222.087,0c122.254,0 221.361,-99.106 221.361,-221.36l-0,-1116.44l221.361,0l0,-221.361Zm-1372.4,221.361l-339.329,0l0,454.274l339.329,-0c125.649,-0 227.508,-101.693 227.508,-227.137c-0,0 -0,0 -0,-0c-0,-125.444 -101.859,-227.136 -227.508,-227.137Z" style="fill:url(#_Linear1);"/><path d="M2091.73,2072.51c0,-58.569 -23.266,-114.739 -64.68,-156.153c-41.415,-41.414 -97.584,-64.681 -156.153,-64.681c-507.298,0 -1712.62,0 -1712.62,0l-0,0c-0,58.569 23.266,114.739 64.68,156.153c41.415,41.414 97.584,64.681 156.153,64.681l1712.62,-0l0,-0Z" style="fill:url(#_Linear2);"/></g><defs><linearGradient id="_Linear1" x1="0" y1="0" x2="1" y2="0" gradientUnits="userSpaceOnUse" gradientTransform="matrix(2233.33,-2250,2250,2233.33,9.97776,2261.72)"><stop offset="0" style="stop-color:#0ef;stop-opacity:1"/><stop offset="1" style="stop-color:#c600ff;stop-opacity:1"/></linearGradient><linearGradient id="_Linear2" x1="0" y1="0" x2="1" y2="0" gradientUnits="userSpaceOnUse" gradientTransform="matrix(2233.33,-2250,2250,2233.33,9.97776,2261.72)"><stop offset="0" style="stop-color:#0ef;stop-opacity:1"/><stop offset="1" style="stop-color:#c600ff;stop-opacity:1"/></linearGradient></defs></svg>